<?xml version="1.0" encoding="UTF-8" standalone="no"?>
<svg
   version="1.1"
   width="1699.9999pt"
   height="2200pt"
   viewBox="0 0 1699.9999 2200"
   id="svg13"
   sodipodi:docname="julia-hep-logo.svg"
   inkscape:version="1.3 (0e150ed, 2023-07-21)"
   inkscape:export-filename="julia-hep-logo.png"
   inkscape:export-xdpi="96"
   inkscape:export-ydpi="96"
   xmlns:inkscape="http://www.inkscape.org/namespaces/inkscape"
   xmlns:sodipodi="http://sodipodi.sourceforge.net/DTD/sodipodi-0.dtd"
   xmlns:xlink="http://www.w3.org/1999/xlink"
   xmlns="http://www.w3.org/2000/svg"
   xmlns:svg="http://www.w3.org/2000/svg">
  <defs
     id="defs13" />
  <sodipodi:namedview
     id="namedview13"
     pagecolor="#ffffff"
     bordercolor="#000000"
     borderopacity="0.25"
     inkscape:showpageshadow="2"
     inkscape:pageopacity="0.0"
     inkscape:pagecheckerboard="0"
     inkscape:deskcolor="#d1d1d1"
     inkscape:document-units="pt"
     inkscape:zoom="0.16090909"
     inkscape:cx="1159.0395"
     inkscape:cy="1625.1412"
     inkscape:window-width="1248"
     inkscape:window-height="856"
     inkscape:window-x="1531"
     inkscape:window-y="116"
     inkscape:window-maximized="0"
     inkscape:current-layer="svg13"
     inkscape:export-bgcolor="#00000000" />
  <g
     enable-background="new"
     id="g13"
     transform="translate(-71.425965,261.92199)"
     inkscape:export-filename="g13.png"
     inkscape:export-xdpi="96"
     inkscape:export-ydpi="96">
    <path
       transform="matrix(1.9444443,0,0,-1.9444443,378.40669,1407.0193)"
       stroke-width="0.3985"
       stroke-linecap="butt"
       stroke-miterlimit="10"
       stroke-linejoin="miter"
       fill="none"
       stroke="#ffffff"
       d="M 0,0 V 545.13198 H 566.9362 V 0 Z m 566.9362,545.13198"
       id="path2" />
    <path
       transform="matrix(1.9444443,0,0,-1.9444443,378.40669,1407.0193)"
       stroke-width="4.48325"
       stroke-linecap="butt"
       stroke-miterlimit="10"
       stroke-linejoin="miter"
       fill="none"
       stroke="#000000"
       d="m 265.05625,396.17494 -10.7728,-0.513 -1.25003,2.10345 -1.63889,1.99271 -2.02255,1.81967 -2.38718,1.57922 -2.71763,1.27555 -2.9962,0.92132 -3.21073,0.52423 -3.34826,0.0934 -3.39977,-0.3486 -3.36123,-0.79071 -3.23236,-1.21329 -3.01912,-1.60427 -2.72889,-1.94208 -2.37635,-2.22238 -1.97628,-2.43217 -1.54675,-2.5736 -1.10515,-2.63934 -0.66783,-2.63632 -0.2513,-2.57099 0.13149,-2.44037 0.47146,-2.26782 0.75998,-2.05237 0.99311,-1.79721 1.16871,-1.52212 1.28853,-1.22449 1.35341,-0.91309 1.36812,-0.59218 1.33654,-0.27247 1.26388,0.051 1.15315,0.36594 1.00955,0.66611 0.83435,0.9494 0.63065,1.21069 0.39922,1.43689 0.14189,1.62722 -0.14101,1.76908 -0.44682,1.86768 -0.77381,1.90234 -1.11508,1.88239 -1.46631,1.79114 -1.81578,1.64147 -2.15533,1.42 -2.46979,1.13976 -2.74707,0.80194 -2.97284,0.41696 -3.13503,-0.006 -3.22198,-0.44807 -3.2263,-0.89838 -3.14496,-1.34088 -2.97718,-1.74617 -2.72975,-2.1177 -2.41009,-2.4205 -2.03336,-2.6618 -1.6138,-2.82623 -1.16871,-2.90837 -0.71759,-2.91402 -0.27511,-2.84912 0.14103,-2.71848 0.51904,-2.52822 0.84821,-2.29328 1.12026,-2.02691 1.33179,-1.73487 1.48015,-1.42566 1.56621,-1.10858 1.5926,-0.78811 1.56276,-0.47318 1.48232,-0.1618 1.3573,0.13626 1.19208,0.42215 0.99398,0.68905 0.76732,0.93555 0.51601,1.15362 0.24525,1.34345 -0.0433,1.49139 -0.34472,1.59562 -0.65834,1.64972 -0.9784,1.65012 -1.30149,1.59 -1.62159,1.46544 -1.92997,1.28162 -2.21981,1.02899 -2.47844,0.71975 -2.69686,0.35987 -2.86124,-0.045 -2.96333,-0.47925 -2.99317,-0.93254 -2.94558,-1.38066 -2.81667,-1.81406 -2.60864,-2.2081 -2.32749,-2.54855 -1.98276,-2.82877 -1.58697,-3.02777 -1.15575,-3.14369 -0.70677,-3.17482 -0.25735,-3.12381 0.17648,-2.99617 0.57872,-2.8033 0.93774,-2.55411 1.24312,-2.2622 1.48836,-1.94162 1.66917,-1.60431 1.78466,-1.26432 1.83569,-0.92431 1.82356,-0.59519 1.7544,-0.28334 1.63282,0.0113 1.46413,0.28332 1.2561,0.53028 1.01473,0.7565 0.7457,0.95245 0.45632,1.11987 0.15182,1.2556 -0.16219,1.35216 -0.48186,1.41178 -0.80105,1.42306 -1.11638,1.38327 -1.42262,1.28723 -1.71328,1.13367 -1.98233,0.92389 -2.22236,0.65228 -2.42482,0.32572 -2.58095,-0.0424 -2.68218,-0.45331 -2.72023,-0.89017 -2.68908,-1.33523 -2.58443,-1.77472 -2.40533,-2.18821 -2.15534,-2.56536 -1.83959,-2.87987 -1.4702,-3.12377 -1.05842,-3.2886 -0.62155,-3.3591 -0.17519,-3.34479 0.26343,-3.24274 0.67735,-3.06152 1.05411,-2.80932 1.38152,-2.50873 1.65013,-2.16007 1.85603,-1.79419 1.99616,-1.41742 2.06881,-1.04025 2.07836,-0.67734 2.02644,-0.34046 1.91831,-0.0311 1.75956,0.24958 1.5567,0.49048 1.31534,0.70288 1.04285,0.87891 0.74612,1.02295 0.43126,1.12848 0.10511,1.20462 -0.22623,1.24444 -0.55538,1.24744 -0.87675,1.20462 -1.186,1.1224 -1.47541,0.99226 -1.73923,0.80798 -1.97193,0.57831 -2.1666,0.29458 -2.3158,-0.0337 -2.41313,-0.40271 -2.45292,-0.80497 -2.42827,-1.2245 -2.33614,-1.65574 -2.17436,-2.06926 -1.9447,-2.4577 -1.65058,-2.80327 -1.3015,-3.08703 -0.9066,-3.29377 -0.48054,-3.42183 -0.0402,-3.4525 0.39966,-3.39325 0.82139,-3.24707 1.20937,-3.01998 1.55194,-2.7237 1.83743,-2.3742 2.06018,-1.98621 2.21589,-1.57791 2.30326,-1.16568 2.32491,-0.76215 2.28422,-0.38235 2.18605,-0.0346 2.03682,0.2738 1.84131,0.53808 1.60819,0.75692 1.3413,0.9304 1.04889,1.06018 0.73662,1.14792 0.41092,1.19644 0.0778,1.20676 -0.25563,1.18255 -0.58394,1.12201 -0.89837,1.02597 -1.19466,0.89276 -1.46416,0.72147 -1.70247,0.51084 -1.901,0.25908 -2.05455,-0.0307 -2.15664,-0.35858 -2.20247,-0.7163 -2.1865,-1.09864 -2.10515,-1.49353 -1.95767,-1.88889 -1.74313,-2.26954 -1.46544,-2.62032 -1.13152,-2.92352 -0.74829,-3.16576 -0.33131,-3.33311 0.10768,-3.41579 0.55106,-3.40882 0.9823,-3.3102 1.38456,-3.12509 1.74442,-2.85952 2.04806,-2.52732 2.28727,-2.14366 2.45726,-1.72494 2.55542,-1.28896 2.58268,-0.85255 2.54506,-0.43255 2.44643,-0.0415 4.90282,-9.60581"
       id="path3" />
    <path
       transform="matrix(1.9444443,0,0,-1.9444443,378.40669,1407.0193)"
       stroke-width="4.48325"
       stroke-linecap="butt"
       stroke-miterlimit="10"
       stroke-linejoin="miter"
       fill="none"
       stroke="#000000"
       d="m 185.272,195.4293 5.83019,-9.07291 -1.19597,-2.13416 -0.90788,-2.41658 -0.56404,-2.66141 -0.17302,-2.85647 0.25304,-2.99144 0.69985,-3.05545 1.1527,-3.04247 1.59218,-2.94645 2.00221,-2.76996 2.36557,-2.51522 2.66787,-2.19296 2.89672,-1.81277 3.0468,-1.39234 3.11168,-0.94725 3.09567,-0.49527 3.00182,-0.0528 2.83874,0.3629 2.61772,0.74006 2.35041,1.06707 2.0498,1.33567 1.72843,1.54201 1.39535,1.683 1.06145,1.75958 0.73317,1.77297 0.41609,1.72798 0.11375,1.62851 -0.16996,1.48144 -0.43386,1.29287 -0.67563,1.06923 -0.89275,0.81663 -1.08178,0.54068 -1.24051,0.24741 -1.36251,-0.0588 -1.44424,-0.37241 -1.47927,-0.69076 -1.46415,-1.00739 -1.3919,-1.3201 -1.26215,-1.62202 -1.07052,-1.90576 -0.8201,-2.16616 -0.51169,-2.39279 -0.15355,-2.57663 0.24783,-2.70898 0.67867,-2.77992 1.12588,-2.78339 1.57184,-2.71201 2.00006,-2.56625 2.39238,-2.34436 2.73105,-2.05412 3.0031,-1.7042 3.19645,-1.30626 3.30329,-0.8759 3.32191,-0.43037 3.25311,0.0151 3.10346,0.44206 2.88373,0.83608 2.60431,1.18603 2.28207,1.48015 1.93042,1.71414 1.56361,1.88197 1.19513,1.98406 0.83566,2.01994 0.49441,1.99445 0.17603,1.91095 -0.11293,1.77298 -0.3724,1.58999 -0.60036,1.3651 -0.79627,1.10687 -0.96157,0.82182 -1.09389,0.51601 -1.1938,0.19681 -1.25824,-0.13019 -1.28421,-0.4585 -1.2695,-0.78245 -1.20938,-1.09735 -1.10038,-1.39494 -0.94033,-1.67263 -0.72623,-1.92219 -0.45979,-2.13761 -0.14275,-2.31149 0.21758,-2.43735 0.61549,-2.50699 1.03723,-2.51434 1.46976,-2.45552 1.898,-2.32619 2.30324,-2.12635 2.66921,-1.86036 2.97802,-1.5329 3.21592,-1.15532 3.37295,-0.7405 3.4395,-0.30321 3.4149,0.13884 3.3007,0.57097 3.10305,0.9758 2.83441,1.33957 2.50742,1.65056 2.13802,1.90274 1.74317,2.08915 1.33823,2.20768 0.93515,2.26 0.55582,2.24834 0.20113,2.17697 -0.11633,2.05152 -0.39667,1.87721 -0.63235,1.66096 -0.82486,1.40834 -0.97796,1.1272 -1.08567,0.82181 -1.16223,0.50089 -1.19773,0.16998 -1.19851,-0.16522 -1.16354,-0.4957 -1.09131,-0.8175 -0.98144,-1.1233 -0.83176,-1.4053 -0.63884,-1.65793 -0.4036,-1.87549 -0.12584,-2.0511 0.19248,-2.17825 0.54672,-2.25049 0.92824,-2.26347 1.3283,-2.21331 1.73406,-2.09607 2.12897,-1.91095 2.50307,-1.66182 2.8262,-1.35083 3.1013,-0.98833 3.29639,-0.58436 3.41617,-0.15312 3.44128,0.28892 3.37295,0.72667 3.22327,1.14235 2.98493,1.52078 2.67569,1.84911 2.3106,2.11728 1.9075,2.31841 1.47972,2.44946 1.0489,2.51044 0.6263,2.5044 0.2271,2.43606 -0.13321,2.31234 -0.45071,2.13933 -0.72018,1.92481 -0.93256,1.67651 -1.09434,1.39969 -1.2046,1.10211 -1.26734,0.78764 -1.28116,0.46369 -1.2587,0.13539 -1.1934,-0.19162 -1.0969,-0.51169 -0.9637,-0.8175 -0.80231,-1.10384 -0.60644,-1.36293 -0.37717,-1.58827 -0.12198,-1.77298 0.16999,-1.91095 0.48486,-1.9966 0.82788,-2.02385 1.18777,-1.9888 1.55625,-1.88801 1.92178,-1.72196 2.27603,-1.48965 2.59952,-1.19684 2.88028,-0.84776 3.10089,-0.45505 3.2544,-0.0277 3.32232,0.4161 3.30803,0.86248 3.20037,1.29329 3.01049,1.69165 2.74097,2.04332 2.40103,2.33484 2.00954,2.55715 1.58485,2.70597 1.13672,2.77861 0.6886,2.77733 0.2608,2.70771 -0.14447,2.57748 -0.50174,2.39496 -0.81057,2.16919 -1.0632,1.91052 -1.25565,1.62675 -1.38629,1.32575 -1.45981,1.01385 -1.47669,0.6964 -1.44295,0.37846 -1.36076,0.064 -1.24139,-0.24222 -1.08566,-0.53592 -0.89579,-0.81274 -0.6804,-1.06664 -0.43941,-1.29112 -0.17563,-1.48102 0.1077,-1.62938 0.40787,-1.72883 0.72882,-1.77645 1.05151,-1.76344 1.38889,-1.68864 1.72365,-1.54935 2.04377,-1.34433 2.34693,-1.07658 2.61383,-0.75046 2.83746,-0.37457 3.0018,0.0406 3.09827,0.48229 3.11557,0.93428 3.04983,1.37979 2.9058,1.80153 2.67569,2.18173 2.37548,2.50568 2.01563,2.76134 1.60428,2.94037 1.16526,3.0373 0.7115,3.05284 0.26646,2.99057 -0.16176,2.85735 -0.55281,2.66314 -0.89835,2.42005 -1.18777,2.13933 5.86783,9.04913"
       id="path4" />
    <path
       transform="matrix(1.9444443,0,0,-1.9444443,378.40669,1407.0193)"
       stroke-width="4.48325"
       stroke-linecap="butt"
       stroke-miterlimit="10"
       stroke-linejoin="miter"
       fill="none"
       stroke="#000000"
       d="m 400.07557,226.09322 4.94351,9.58548 2.44641,0.0316 2.54548,0.42172 2.58831,0.84259 2.55976,1.27815 2.46332,1.71502 2.29592,2.13414 2.05799,2.5191 1.75741,2.85214 1.39752,3.11905 0.99485,3.30632 0.56445,3.40623 0.12155,3.41574 -0.3175,3.33443 -0.73401,3.1688 -1.11984,2.92826 -1.45417,2.62597 -1.73449,2.27686 -1.95034,1.89711 -2.0978,1.5022 -2.1826,1.1073 -2.19984,0.7258 -2.15448,0.3668 -2.05499,0.0393 -1.90189,-0.25171 -1.70376,-0.50348 -1.46845,-0.71542 -1.199,-0.888 -0.9014,-1.02253 -0.58699,-1.1194 -0.2608,-1.18125 0.0709,-1.20765 0.40526,-1.1977 0.73448,-1.15056 1.04327,-1.06446 1.33783,-0.93603 1.60428,-0.76386 1.8396,-0.54586 2.03554,-0.28159 2.18559,0.0255 2.28726,0.37282 2.32752,0.75307 2.30758,1.15573 2.22238,1.5688 2.06925,1.97804 1.84521,2.3664 1.56494,2.71762 1.22147,3.0148 0.8335,3.24448 0.41394,3.39325 -0.0255,3.45251 -0.46754,3.42139 -0.89321,3.29681 -1.28678,3.09265 -1.64148,2.8093 -1.93304,2.46895 -2.16571,2.0779 -2.33008,1.66097 -2.42396,1.23877 -2.449,0.8136 -2.41226,0.41396 -2.31324,0.0424 -2.1683,-0.28631 -1.97583,-0.56968 -1.74053,-0.80238 -1.47974,-0.98357 -1.19034,-1.11984 -0.88193,-1.20159 -0.561,-1.2418 -0.23273,-1.24444 0.1021,-1.20462 0.42518,-1.1341 0.74268,-1.02295 1.03764,-0.88455 1.31536,-0.7059 1.55322,-0.49874 1.75742,-0.25517 1.91918,0.0199 2.02686,0.33435 2.08353,0.66912 2.07229,1.0316 2.00134,1.40878 1.8651,1.78598 1.65837,2.15444 1.39148,2.5001 1.0662,2.8063 0.68863,3.05847 0.27767,3.24317 -0.16135,3.34482 -0.60943,3.36209 -1.0433,3.29075 -1.45677,3.13247 -1.82875,2.88589 -2.14585,2.57358 -2.39496,2.19992 -2.57705,1.78592 -2.68436,1.34649 -2.71848,0.89841 -2.67871,0.46497 -2.57965,0.0536 -2.42654,-0.31748 -2.22498,-0.64316 -1.98707,-0.91313 -1.71804,-1.12803 -1.42868,-1.28119 -1.11941,-1.3776 -0.80799,-1.42048 -0.48745,-1.40877 -0.16743,-1.35213 0.14448,-1.2587 0.45376,-1.11937 0.74265,-0.95809 1.00911,-0.75694 1.25566,-0.53851 1.46284,-0.28634 1.63286,-0.0199 1.75434,0.27771 1.82577,0.58692 1.83957,0.9183 1.79156,1.25305 1.6752,1.59867 1.4966,1.93603 1.25048,2.25917 0.9494,2.54848 0.58957,2.80069 0.18988,2.99621 -0.24655,3.12381 -0.69162,3.18045 -1.14536,3.1467 -1.57312,3.03293 -1.97024,2.83746 -2.31839,2.55976 -2.59955,2.21676 -2.80933,1.82575 -2.93954,1.3919 -2.98755,0.9438 -2.96243,0.49309 -2.86298,0.0567 -2.69559,-0.34561 -2.48321,-0.71155 -2.22237,-1.02075 -1.93602,-1.27255 -1.62723,-1.4598 -1.30972,-1.58482 -0.98358,-1.64668 -0.66611,-1.6471 -0.35168,-1.59605 -0.048,-1.49096 0.23789,-1.34085 0.51297,-1.15664 0.76256,-0.9382 0.99226,-0.69417 1.19074,-0.42523 1.35476,-0.14184 1.48532,0.1557 1.56492,0.46499 1.59307,0.78245 1.57312,1.10256 1.48535,1.41742 1.33826,1.72928 1.12805,2.02384 0.85904,2.29028 0.52981,2.52602 0.15058,2.71549 -0.26388,2.85171 -0.7059,2.91706 -1.15662,2.914 -1.60128,2.83182 -2.02122,2.67005 -2.401,2.43216 -2.7211,2.12594 -2.9711,1.76041 -3.13764,1.35214 -3.22329,0.91262 -3.22025,0.4624 -3.13501,0.0169 -2.97372,-0.40531 -2.75223,-0.7911 -2.47498,-1.12808 -2.15966,-1.4118 -1.8227,-1.63237 -1.4741,-1.78897 -1.1229,-1.87378 -0.7794,-1.90188 -0.45633,-1.8625 -0.14749,-1.77166 0.13622,-1.62724 0.39103,-1.4399 0.62677,-1.21026 0.83045,-0.95545 1.0061,-0.66912 1.15095,-0.37113 1.26436,-0.0541 1.33783,0.26384 1.37201,0.58956 1.35514,0.90704 1.29544,1.21887 1.17346,1.51651 1.00046,1.79456 0.76864,2.04681 0.48184,2.26475 0.14142,2.4434 -0.2409,2.571 -0.65747,2.63937 -1.0943,2.64453 -1.53638,2.57968 -1.96719,2.44077 -2.36683,2.23062 -2.72155,1.95333 -3.01048,1.6155 -3.22841,1.22759 -3.35654,0.80491 -3.39887,0.36293 -3.35043,-0.0822 -3.21161,-0.51038 -2.99921,-0.90707 -2.72413,-1.2669 -2.3924,-1.5675 -2.02943,-1.81147 -1.6471,-1.98706 -1.26129,-2.09784 -10.76931,0.55584"
       id="path5" />
    <path
       transform="matrix(1.9444443,0,0,-1.9444443,378.40669,1407.0193)"
       d="m 351.50028,408.84877 -0.23791,5.47373 -0.71457,5.4344 -1.18472,5.36 -1.64708,5.24456 -2.0974,5.09354 -2.53421,4.90719 -2.95123,4.68567 -3.34741,4.4335 -3.72501,4.14714 -4.07064,3.83233 -4.3907,3.49231 -4.67745,3.1268 -4.93525,2.74102 -5.1563,2.3331 -5.34055,1.9075 -5.48761,1.47409 -5.59571,1.02595 -5.66668,0.57269 -5.69655,0.11636 -5.68657,-0.34601 -5.63683,-0.79937 -5.54731,-1.25 -5.41839,-1.69513 -5.25275,-2.12334 -5.04945,-2.53682 -4.81069,-2.93695 -4.53862,-3.31064 -4.23413,-3.66531 -3.9006,-3.99408 -3.53903,-4.29465 -3.1532,-4.56372 -2.74489,-4.79903 -2.31754,-5.00615 -1.87419,-5.17318 -1.41656,-5.3068 -0.95029,-5.40283 -0.47666,-5.4595 v -5.4794 l 0.47666,-5.45948 0.95029,-5.40023 1.41656,-5.30637 1.87419,-5.17361 2.31754,-5.00577 2.74489,-4.80203 3.1532,-4.56115 3.53903,-4.2942 3.9006,-3.99405 4.23413,-3.66535 4.53862,-3.31365 4.81069,-2.9339 5.04945,-2.53986 5.25275,-2.12335 5.41839,-1.69251 5.54731,-1.25003 5.63683,-0.80191 5.68657,-0.34301 5.69655,0.11331 5.66668,0.57269 5.59571,1.02902 5.48761,1.47104 5.34055,1.91052 5.1563,2.33313 4.93525,2.73795 4.67745,3.1268 4.3907,3.49234 4.07064,3.8353 3.72501,4.14718 3.34741,4.43048 2.95123,4.6857 2.53421,4.90973 2.0974,5.094 1.64708,5.24408 1.18472,5.35742 0.71457,5.43701"
       fill="#389725"
       id="path6" />
    <path
       transform="matrix(1.9444443,0,0,-1.9444443,378.40669,1407.0193)"
       stroke-width="0.3985"
       stroke-linecap="butt"
       stroke-miterlimit="10"
       stroke-linejoin="miter"
       fill="none"
       stroke="#389725"
       d="m 351.50028,408.84877 -0.23791,5.47373 -0.71457,5.4344 -1.18472,5.36 -1.64708,5.24456 -2.0974,5.09354 -2.53421,4.90719 -2.95123,4.68567 -3.34741,4.4335 -3.72501,4.14714 -4.07064,3.83233 -4.3907,3.49231 -4.67745,3.1268 -4.93525,2.74102 -5.1563,2.3331 -5.34055,1.9075 -5.48761,1.47409 -5.59571,1.02595 -5.66668,0.57269 -5.69655,0.11636 -5.68657,-0.34601 -5.63683,-0.79937 -5.54731,-1.25 -5.41839,-1.69513 -5.25275,-2.12334 -5.04945,-2.53682 -4.81069,-2.93695 -4.53862,-3.31064 -4.23413,-3.66531 -3.9006,-3.99408 -3.53903,-4.29465 -3.1532,-4.56372 -2.74489,-4.79903 -2.31754,-5.00615 -1.87419,-5.17318 -1.41656,-5.3068 -0.95029,-5.40283 -0.47666,-5.4595 v -5.4794 l 0.47666,-5.45948 0.95029,-5.40023 1.41656,-5.30637 1.87419,-5.17361 2.31754,-5.00577 2.74489,-4.80203 3.1532,-4.56115 3.53903,-4.2942 3.9006,-3.99405 4.23413,-3.66535 4.53862,-3.31365 4.81069,-2.9339 5.04945,-2.53986 5.25275,-2.12335 5.41839,-1.69251 5.54731,-1.25003 5.63683,-0.80191 5.68657,-0.34301 5.69655,0.11331 5.66668,0.57269 5.59571,1.02902 5.48761,1.47104 5.34055,1.91052 5.1563,2.33313 4.93525,2.73795 4.67745,3.1268 4.3907,3.49234 4.07064,3.8353 3.72501,4.14718 3.34741,4.43048 2.95123,4.6857 2.53421,4.90973 2.0974,5.094 1.64708,5.24408 1.18472,5.35742 0.71457,5.43701"
       id="path7" />
    <symbol
       id="font_0_2">
      <path
         d="M 0,0.48000003 V 0.141 C 0,0.111 0.001,0.08100001 0.01400001,0.05400001 0.03200001,0.015 0.07300002,0 0.11400001,0 0.165,0 0.215,0.016 0.254,0.05000001 c 0.014,0.01199999 0.028,0.027 0.036,0.044 H 0.291 V 0.008 H 0.354 V 0.48000003 H 0.29 V 0.23900001 c 0,-0.042 0.006,-0.088 -0.016,-0.126 -0.027,-0.04600001 -0.073,-0.071 -0.13900003,-0.065 -0.021,0.002 -0.04399999,0.005 -0.05799999,0.02199999 -0.02,0.02400001 -0.013,0.08300001 -0.013,0.117 v 0.29300003 z"
         id="path8" />
    </symbol>
    <use
       xlink:href="#font_0_2"
       transform="matrix(132.38169,0,0,-132.38169,906.11257,644.3628)"
       fill="#ffffff"
       id="use8" />
    <path
       transform="matrix(1.9444443,0,0,-1.9444443,378.40669,1407.0193)"
       d="m 228.75507,204.42394 -0.23834,5.47375 -0.71456,5.43571 -1.18428,5.35914 -1.64669,5.24454 -2.0978,5.09399 -2.53337,4.90713 -2.95163,4.68657 -3.34915,4.43221 -3.72285,4.14717 -4.07105,3.83316 -4.39026,3.49233 -4.67876,3.12683 -4.9344,2.73923 -5.15541,2.33267 -5.34055,1.90967 -5.48761,1.47366 -5.59704,1.0264 -5.66669,0.5727 -5.69652,0.1146 -5.68658,-0.34385 -5.63683,-0.8002 -5.54687,-1.25132 -5.41928,-1.69296 -5.25273,-2.12292 -5.04944,-2.53855 -4.8107,-2.9352 -4.5382,-3.31238 -4.23454,-3.6662 -3.90062,-3.99362 -3.53903,-4.2938 -3.15276,-4.56329 -2.74533,-4.80073 -2.3171,-5.0049 -1.87377,-5.17401 -1.41699,-5.30638 -0.95027,-5.40239 -0.4771,-5.45906 v -5.47896 l 0.4771,-5.45906 0.95027,-5.40241 1.41699,-5.30638 1.87377,-5.17403 2.3171,-5.0049 2.74533,-4.80115 3.15276,-4.56328 3.53903,-4.29338 3.90062,-3.99362 4.23454,-3.66619 4.5382,-3.31238 4.8107,-2.93563 5.04944,-2.53814 5.25273,-2.12289 5.41928,-1.69296 5.54687,-1.25133 5.63683,-0.80019 5.68658,-0.34431 5.69652,0.11506 5.66669,0.57268 5.59704,1.0264 5.48761,1.47325 5.34055,1.91008 5.15541,2.33225 4.9344,2.7397 4.67876,3.12637 4.39026,3.49275 4.07105,3.83271 3.72285,4.1476 3.34915,4.43223 2.95163,4.68611 2.53337,4.90758 2.0978,5.09399 1.64669,5.24454 1.18428,5.35913 0.71456,5.43527"
       fill="#ca3b33"
       id="path9" />
    <path
       transform="matrix(1.9444443,0,0,-1.9444443,378.40669,1407.0193)"
       stroke-width="0.3985"
       stroke-linecap="butt"
       stroke-miterlimit="10"
       stroke-linejoin="miter"
       fill="none"
       stroke="#ca3b33"
       d="m 228.75507,204.42394 -0.23834,5.47375 -0.71456,5.43571 -1.18428,5.35914 -1.64669,5.24454 -2.0978,5.09399 -2.53337,4.90713 -2.95163,4.68657 -3.34915,4.43221 -3.72285,4.14717 -4.07105,3.83316 -4.39026,3.49233 -4.67876,3.12683 -4.9344,2.73923 -5.15541,2.33267 -5.34055,1.90967 -5.48761,1.47366 -5.59704,1.0264 -5.66669,0.5727 -5.69652,0.1146 -5.68658,-0.34385 -5.63683,-0.8002 -5.54687,-1.25132 -5.41928,-1.69296 -5.25273,-2.12292 -5.04944,-2.53855 -4.8107,-2.9352 -4.5382,-3.31238 -4.23454,-3.6662 -3.90062,-3.99362 -3.53903,-4.2938 -3.15276,-4.56329 -2.74533,-4.80073 -2.3171,-5.0049 -1.87377,-5.17401 -1.41699,-5.30638 -0.95027,-5.40239 -0.4771,-5.45906 v -5.47896 l 0.4771,-5.45906 0.95027,-5.40241 1.41699,-5.30638 1.87377,-5.17403 2.3171,-5.0049 2.74533,-4.80115 3.15276,-4.56328 3.53903,-4.29338 3.90062,-3.99362 4.23454,-3.66619 4.5382,-3.31238 4.8107,-2.93563 5.04944,-2.53814 5.25273,-2.12289 5.41928,-1.69296 5.54687,-1.25133 5.63683,-0.80019 5.68658,-0.34431 5.69652,0.11506 5.66669,0.57268 5.59704,1.0264 5.48761,1.47325 5.34055,1.91008 5.15541,2.33225 4.9344,2.7397 4.67876,3.12637 4.39026,3.49275 4.07105,3.83271 3.72285,4.1476 3.34915,4.43223 2.95163,4.68611 2.53337,4.90758 2.0978,5.09399 1.64669,5.24454 1.18428,5.35913 0.71456,5.43527"
       id="path10" />
    <use
       xlink:href="#font_0_2"
       transform="matrix(132.38169,0,0,-132.38169,667.44338,1041.8501)"
       fill="#ffffff"
       id="use10" />
    <path
       transform="matrix(1.9444443,0,0,-1.9444443,378.40669,1407.0193)"
       d="m 474.245,204.42394 -0.2383,5.47375 -0.71412,5.43571 -1.18515,5.35914 -1.64667,5.24454 -2.0978,5.09399 -2.53122,4.90713 -2.95384,4.68657 -3.3478,4.43221 -3.72201,4.14717 -4.07319,3.83316 -4.3881,3.49233 -4.68007,3.12683 -4.93527,2.73923 -5.15369,2.33267 -5.34052,1.90967 -5.48761,1.47366 -5.59881,1.0264 -5.66623,0.5727 -5.6948,0.1146 -5.6866,-0.34385 -5.6381,-0.8002 -5.54773,-1.25132 -5.41667,-1.69296 -5.25276,-2.12292 -5.05161,-2.53855 -4.81024,-2.9352 -4.53861,-3.31238 -4.23501,-3.6662 -3.90018,-3.99362 -3.53772,-4.2938 -3.15234,-4.56329 -2.74663,-4.80073 -2.31621,-5.0049 -1.87375,-5.17401 -1.41704,-5.30638 -0.94984,-5.40239 -0.47882,-5.45906 v -5.47896 l 0.47882,-5.45906 0.94984,-5.40241 1.41704,-5.30638 1.87375,-5.17403 2.31621,-5.0049 2.74663,-4.80115 3.15234,-4.56328 3.53772,-4.29338 3.90018,-3.99362 4.23501,-3.66619 4.53861,-3.31238 4.81024,-2.93563 5.05161,-2.53814 5.25276,-2.12289 5.41667,-1.69296 5.54773,-1.25133 5.6381,-0.80019 5.6866,-0.34431 5.6948,0.11506 5.66623,0.57268 5.59881,1.0264 5.48761,1.47325 5.34052,1.91008 5.15369,2.33225 4.93527,2.7397 4.68007,3.12637 4.3881,3.49275 4.07319,3.83271 3.72201,4.1476 3.3478,4.43223 2.95384,4.68611 2.53122,4.90758 2.0978,5.09399 1.64667,5.24454 1.18515,5.35913 0.71412,5.43527"
       fill="#9457b1"
       id="path11" />
    <path
       transform="matrix(1.9444443,0,0,-1.9444443,378.40669,1407.0193)"
       stroke-width="0.3985"
       stroke-linecap="butt"
       stroke-miterlimit="10"
       stroke-linejoin="miter"
       fill="none"
       stroke="#9457b1"
       d="m 474.245,204.42394 -0.2383,5.47375 -0.71412,5.43571 -1.18515,5.35914 -1.64667,5.24454 -2.0978,5.09399 -2.53122,4.90713 -2.95384,4.68657 -3.3478,4.43221 -3.72201,4.14717 -4.07319,3.83316 -4.3881,3.49233 -4.68007,3.12683 -4.93527,2.73923 -5.15369,2.33267 -5.34052,1.90967 -5.48761,1.47366 -5.59881,1.0264 -5.66623,0.5727 -5.6948,0.1146 -5.6866,-0.34385 -5.6381,-0.8002 -5.54773,-1.25132 -5.41667,-1.69296 -5.25276,-2.12292 -5.05161,-2.53855 -4.81024,-2.9352 -4.53861,-3.31238 -4.23501,-3.6662 -3.90018,-3.99362 -3.53772,-4.2938 -3.15234,-4.56329 -2.74663,-4.80073 -2.31621,-5.0049 -1.87375,-5.17401 -1.41704,-5.30638 -0.94984,-5.40239 -0.47882,-5.45906 v -5.47896 l 0.47882,-5.45906 0.94984,-5.40241 1.41704,-5.30638 1.87375,-5.17403 2.31621,-5.0049 2.74663,-4.80115 3.15234,-4.56328 3.53772,-4.29338 3.90018,-3.99362 4.23501,-3.66619 4.53861,-3.31238 4.81024,-2.93563 5.05161,-2.53814 5.25276,-2.12289 5.41667,-1.69296 5.54773,-1.25133 5.6381,-0.80019 5.6866,-0.34431 5.6948,0.11506 5.66623,0.57268 5.59881,1.0264 5.48761,1.47325 5.34052,1.91008 5.15369,2.33225 4.93527,2.7397 4.68007,3.12637 4.3881,3.49275 4.07319,3.83271 3.72201,4.1476 3.3478,4.43223 2.95384,4.68611 2.53122,4.90758 2.0978,5.09399 1.64667,5.24454 1.18515,5.35913 0.71412,5.43527"
       id="path12" />
    <symbol
       id="font_0_1">
      <path
         d="M 0.365,0.71500006 V 0.43 h -9.9997e-4 c -0.009,0.015 -0.022,0.027 -0.036,0.037 -0.045,0.0350001 -0.10699998,0.0440001 -0.15999998,0.021 -0.029,-0.013 -0.053,-0.033 -0.07300001,-0.058 C 0,0.30600003 0.033,0.09300001 0.157,0.028 0.21300002,0 0.28,0.013 0.32700003,0.053 c 0.013,0.011 0.028,0.026 0.036,0.042 h 0.001 V 0.021 h 0.064 V 0.71500006 H 0.365 M 0.36200003,0.391 c 0.004,-0.009 0.002,-0.021 0.002,-0.031 V 0.16000001 c 0,-0.024 -0.002,-0.025 -0.015,-0.045 -0.02,-0.029 -0.05,-0.04900001 -0.085,-0.052 -0.042,-0.003 -0.089,0.015 -0.11600004,0.04699999 -0.032,0.036 -0.044,0.086 -0.044,0.14500003 0,0.062 0.014,0.128 0.067,0.16599997 0.01,0.008 0.021,0.014 0.033,0.018 0.061,0.027 0.13099999,0.008 0.15800004,-0.048 z"
         id="path13" />
    </symbol>
    <use
       xlink:href="#font_0_1"
       transform="matrix(132.38169,0,0,-132.38169,1134.9833,1058.2805)"
       fill="#ffffff"
       id="use13" />
  </g>
</svg>
