<svg width="386" height="152" viewBox="0 0 386 152" xmlns="http://www.w3.org/2000/svg">
  <g fill="#E7344C" fill-rule="evenodd">
    <path d="M355.246 64.64h-16.7v-7.18h16.7v-5.056c0-5.078 1.562-9.13 4.687-12.16 3.125-3.026 7.325-4.54 12.598-4.54 4.72 0 9.034.83 12.94 2.49v7.91c-.747-.357-1.603-.707-2.563-1.05-.96-.34-2.01-.658-3.15-.95-2.245-.62-4.313-.93-6.2-.93-1.563 0-2.947.23-4.15.685-1.205.455-2.223 1.09-3.053 1.903-.83.814-1.457 1.782-1.88 2.905-.423 1.123-.634 2.368-.634 3.736v5.057h22.02v7.18h-22.02v43.407h-8.594V64.64zM9.22 108.048H.48V37.15H11.61l28.27 57.276V37.15h8.595v70.898H37.59L9.22 51.065M84.074 49.16h12.11V37.15h-12.11v12.01zm29.2 58.887H67.96v-7.323h18.31V64.64H69.964v-7.178h24.902v43.262h18.408v7.323zM137.207 108.048h-8.498V37.15h8.497v45.703l24.218-25.39h11.28L153.417 77.53l20.02 30.518h-10.01L147.51 83.633l-10.303 10.694M293.37 78.457h28.516c-.098-4.394-1.53-8.023-4.296-10.888-2.637-2.736-5.877-4.103-9.718-4.103-2.344 0-4.452.49-6.323 1.465-1.873.977-3.38 2.246-4.517 3.808-1.14 1.564-2.02 3.174-2.638 4.835-.618 1.66-.96 3.288-1.025 4.882m-8.984 4.492c0-4.036.634-7.813 1.904-11.328 1.27-3.517 3.125-6.51 5.567-8.985 4.328-4.33 9.7-6.493 16.113-6.493 3.157 0 6.087.544 8.79 1.635 2.7 1.09 4.98 2.58 6.835 4.467 2.344 2.44 4.142 5.412 5.396 8.91 1.254 3.5 1.88 7.268 1.88 11.304v2.98h-37.793c0 2.343.407 4.63 1.22 6.86.814 2.23 2.1 4.176 3.86 5.835 2.635 2.54 5.874 3.81 9.715 3.81 1.075 0 2.043-.058 2.906-.172.863-.113 1.66-.293 2.392-.537.733-.244 1.416-.553 2.05-.928.636-.373 1.28-.822 1.93-1.343 2.148-1.725 3.564-3.76 4.248-6.103h8.154c-1.172 5.176-3.727 9.228-7.666 12.157-3.972 2.897-8.643 4.346-14.014 4.346-6.152 0-11.49-2.213-16.015-6.64-4.98-4.884-7.47-11.475-7.47-19.777M234.182 108.048h-8.595V37.15h8.595v27.002c1.397-2.475 3.563-4.427 6.493-5.86 2.963-1.432 5.94-2.148 8.936-2.148 2.865 0 5.413.415 7.642 1.243 2.23.83 4.11 2.045 5.64 3.64 1.53 1.595 2.693 3.547 3.49 5.858.8 2.312 1.197 4.933 1.197 7.863v33.3h-8.593v-32.08c0-8.073-3.826-12.11-11.475-12.11-1.173 0-2.32.19-3.443.562-1.123.375-2.173.912-3.15 1.61-.977.703-1.873 1.54-2.685 2.516-.815.977-1.498 2.05-2.05 3.224-.686 1.463-1.19 3.27-1.516 5.418-.326 2.15-.488 4.672-.488 7.568v23.292z"/>
    <path d="M198.512 31l65.78-23.94-2.396-6.58-66.884 24.345L128.128.48l-2.394 6.58L191.512 31v90l-65.778 23.94 2.394 6.58 66.884-24.345 66.884 24.345 2.395-6.58L198.513 121"/>
  </g>
</svg>
