<?xml version="1.0" encoding="UTF-8" standalone="no"?>
<!-- Created with Inkscape (http://www.inkscape.org/) -->
<svg
   xmlns:dc="http://purl.org/dc/elements/1.1/"
   xmlns:cc="http://creativecommons.org/ns#"
   xmlns:rdf="http://www.w3.org/1999/02/22-rdf-syntax-ns#"
   xmlns:svg="http://www.w3.org/2000/svg"
   xmlns="http://www.w3.org/2000/svg"
   xmlns:sodipodi="http://sodipodi.sourceforge.net/DTD/sodipodi-0.dtd"
   xmlns:inkscape="http://www.inkscape.org/namespaces/inkscape"
   version="1.0"
   width="108.269"
   height="73.97847"
   id="svg2"
   xml:space="preserve"
   sodipodi:version="0.32"
   inkscape:version="0.46"
   sodipodi:docname="lhcb-logo-new.svg"
   inkscape:output_extension="org.inkscape.output.svg.inkscape"><metadata
     id="metadata19"><rdf:RDF><cc:Work
         rdf:about=""><dc:format>image/svg+xml</dc:format><dc:type
           rdf:resource="http://purl.org/dc/dcmitype/StillImage" /></cc:Work></rdf:RDF></metadata><sodipodi:namedview
     inkscape:window-height="724"
     inkscape:window-width="640"
     inkscape:pageshadow="2"
     inkscape:pageopacity="0.0"
     guidetolerance="10.0"
     gridtolerance="10.0"
     objecttolerance="10.0"
     borderopacity="1.0"
     bordercolor="#666666"
     pagecolor="#ffffff"
     id="base"
     showgrid="false"
     inkscape:zoom="5.2000112"
     inkscape:cx="54.134499"
     inkscape:cy="36.989235"
     inkscape:window-x="282"
     inkscape:window-y="0"
     inkscape:current-layer="g13" /><defs
     id="defs5"><inkscape:perspective
       sodipodi:type="inkscape:persp3d"
       inkscape:vp_x="0 : 36.989235 : 1"
       inkscape:vp_y="0 : 1000 : 0"
       inkscape:vp_z="108.269 : 36.989235 : 1"
       inkscape:persp3d-origin="54.134499 : 24.65949 : 1"
       id="perspective21" /></defs><g
     transform="matrix(1.25,0,0,-1.25,-0.4648437,74.565875)"
     id="g11"><g
       transform="scale(0.1,0.1)"
       id="g13"><path
         d="M 3.71875,4.69922 L 869.87075,4.69922 L 869.87075,300.61722 L 3.71875,300.61722 L 3.71875,4.69922 z"
         id="path15"
         style="fill:#3f179c;fill-opacity:1;fill-rule:nonzero;stroke:none" /><path
         d="M 437.32,133.32 L 820.051,305.211"
         id="path17"
         style="fill:#ffffff;fill-opacity:1;fill-rule:nonzero;stroke:none" /><path
         d="M 437.32,133.32 L 820.051,305.211"
         id="path19"
         style="fill:none;stroke:#e80a00;stroke-width:30;stroke-linecap:butt;stroke-linejoin:round;stroke-miterlimit:10;stroke-dasharray:none;stroke-opacity:1" /><path
         d="M 3.71875,300.609 L 869.87075,300.609 L 869.87075,596.527 L 3.71875,596.527 L 3.71875,300.609 z"
         id="path21"
         style="fill:#cfeeee;fill-opacity:1;fill-rule:nonzero;stroke:none" /><path
         d="M 188.609,301.48 L 40.0391,301.48 L 40.0391,307.148 C 51.5898,308.551 57.2383,310.648 61.5312,323.969 L 94.5781,428.84 C 94.5781,428.84 97.2695,438.879 97.2695,441.922 C 97.2695,449.398 94.8516,449.629 77.6602,451.738 L 77.6602,457.41 L 162.828,457.41 L 162.828,451.738 C 147.781,451.039 139.988,448.93 135.691,434.922 L 101.031,323.262 C 99.6914,318.82 99.6914,316.949 99.6914,315.781 C 99.6914,313.68 99.6914,308.77 117.148,308.77 C 149.391,308.77 179.48,318.578 198.02,347.781 L 204.469,346.609 L 188.621,301.48"
         id="path23"
         style="fill:#3f179c;fill-opacity:1;fill-rule:nonzero;stroke:none" /><path
         d="M 387.941,301.48 L 302.641,301.48 L 302.641,307.148 C 323.09,307.859 326.59,313.719 329.82,324.031 L 347.039,378.43 L 282.73,378.43 L 269.27,335.988 C 267.391,329.898 264.699,323.102 264.699,317.23 C 264.699,308.559 270.352,308.09 284.34,307.148 L 284.34,301.48 L 204.691,301.48 L 204.691,307.148 C 214.648,308.559 221.641,309.5 226.219,324.031 L 259.051,428.879 C 259.852,431.211 262.012,438.91 262.012,441.469 C 262.012,449.172 259.051,449.629 242.371,451.73 L 242.371,457.398 L 327.672,457.398 L 327.672,451.73 C 312.602,451.262 304.801,448.93 300.488,434.941 L 285.961,388.551 L 350.27,388.551 L 362.922,428.879 C 362.922,428.879 365.609,438.91 365.609,441.93 C 365.609,449.391 363.191,449.629 345.969,451.73 L 345.969,457.398 L 426.16,457.398 L 426.16,451.73 C 415.391,450.328 408.93,449.391 404.359,434.941 L 375.031,342.32 C 373.148,335.988 368.301,322.621 368.301,317 C 368.301,308.32 377.719,307.391 387.941,307.148 L 387.941,301.48"
         id="path25"
         style="fill:#3f179c;fill-opacity:1;fill-rule:nonzero;stroke:none" /><path
         d="M 589.969,410.449 L 581.469,411.852 C 582.012,414.391 582.281,417.16 582.281,419.699 C 582.281,442.09 569.859,456.398 546.371,456.398 C 502.898,456.398 471.309,396.449 471.309,355.16 C 471.309,313.398 506.41,313.398 510.191,313.398 C 531.52,313.398 548.801,319.469 568.512,340.93 L 576.609,335.801 C 562.84,317.84 538.27,300.93 503.172,300.93 C 468.09,300.93 430,319.012 430,361.23 C 430,413.012 474.551,464.512 540.16,464.512 C 563.379,464.512 578.5,457.801 584.93,457.801 C 590.781,457.801 592.93,460.809 595.621,464.512 L 603.691,464.512 L 589.969,410.461"
         id="path27"
         style="fill:#3f179c;fill-opacity:1;fill-rule:nonzero;stroke:none" /><path
         d="M 760.48,414.051 C 760.48,384.129 721.281,308.98 664.77,308.98 C 645.379,308.98 645.379,318.238 645.379,320.738 C 645.379,358.129 684.98,444.328 730.359,444.328 C 756.352,444.328 760.48,425.102 760.48,414.051 z M 645.801,534.16 C 669.73,533.801 672.609,532.012 672.609,523.801 C 672.609,518.801 668.898,509.871 666.012,499.871 L 609.898,321.102 L 609.898,319.672 C 609.898,311.832 641.672,300.879 663.539,300.879 C 726.648,300.879 795.309,362.398 795.309,418.68 C 795.309,444.691 775.23,462 746.449,462 C 709.328,462 683.34,428.66 669.719,410.141 L 668.898,410.5 C 682.93,450.832 701.898,517.148 710.98,546.32 L 708.922,548.102 C 687.469,544.48 666.43,541.98 645.801,539.84 L 645.801,534.172"
         id="path29"
         style="fill:#3f179c;fill-opacity:1;fill-rule:nonzero;stroke:none" /><path
         d="M 203.922,253.539 L 197.469,252.371 C 178.93,281.57 148.84,291.379 116.602,291.379 C 99.1406,291.379 99.1406,286.469 99.1406,284.371 C 99.1406,283.199 99.1406,281.328 100.48,276.891 L 135.141,165.23 C 139.441,151.211 147.23,149.109 162.281,148.41 L 162.281,142.738 L 77.1094,142.738 L 77.1094,148.41 C 94.3086,150.512 96.7188,150.75 96.7188,158.219 C 96.7188,161.262 94.0312,171.301 94.0312,171.301 L 60.9805,276.172 C 56.6797,289.488 51.0391,291.59 39.4883,292.988 L 39.4883,298.66 L 188.059,298.66 L 203.91,253.531"
         id="path31"
         style="fill:#cfeeee;fill-opacity:1;fill-rule:nonzero;stroke:none" /><path
         d="M 387.941,294.082 C 377.719,293.852 368.301,292.91 368.301,284.23 C 368.301,278.602 373.141,265.238 375.031,258.91 L 404.359,166.281 C 408.93,151.832 415.398,150.898 426.16,149.488 L 426.16,143.82 L 345.969,143.82 L 345.969,149.488 C 363.191,151.59 365.609,151.82 365.609,159.281 C 365.609,162.309 362.922,172.332 362.922,172.332 L 350.27,212.66 L 285.961,212.66 L 300.488,166.27 C 304.789,152.289 312.602,149.949 327.672,149.48 L 327.672,143.809 L 242.371,143.809 L 242.371,149.48 C 259.051,151.582 262.012,152.051 262.012,159.738 C 262.012,162.309 259.852,170 259.051,172.332 L 226.219,277.18 C 221.648,291.719 214.648,292.66 204.691,294.059 L 204.691,299.73 L 284.34,299.73 L 284.34,294.059 C 270.352,293.121 264.699,292.648 264.699,283.98 C 264.699,278.121 267.391,271.32 269.27,265.219 L 282.73,222.781 L 347.039,222.781 L 329.82,277.172 C 326.59,287.488 323.09,293.352 302.641,294.051 L 302.641,299.719 L 387.941,299.719 L 387.941,294.051"
         id="path33"
         style="fill:#cfeeee;fill-opacity:1;fill-rule:nonzero;stroke:none" /><path
         d="M 603.691,136.73 L 595.621,136.73 C 592.93,140.43 590.781,143.441 584.93,143.441 C 578.5,143.441 563.379,136.73 540.16,136.73 C 474.551,136.73 430,188.219 430,240 C 430,282.23 468.09,300.301 503.172,300.301 C 538.27,300.301 562.84,283.391 576.609,265.43 L 568.512,260.301 C 548.801,281.762 531.52,287.828 510.191,287.828 C 506.41,287.828 471.309,287.828 471.309,246.07 C 471.309,204.781 502.898,144.828 546.371,144.828 C 569.859,144.828 582.281,159.141 582.281,181.531 C 582.281,184.07 582.012,186.84 581.469,189.379 L 589.969,190.781 L 603.691,136.73"
         id="path35"
         style="fill:#cfeeee;fill-opacity:1;fill-rule:nonzero;stroke:none" /><path
         d="M 730.359,156.898 C 684.988,156.898 645.379,243.102 645.379,280.488 C 645.379,282.988 645.379,292.238 664.77,292.238 C 721.281,292.238 760.48,217.09 760.48,187.168 C 760.48,176.129 756.352,156.891 730.359,156.891 L 730.359,156.898 z M 645.801,61.3906 C 666.43,59.25 687.461,56.7617 708.922,53.1289 L 710.98,54.9219 C 701.898,84.0898 682.93,150.41 668.898,190.738 L 669.719,191.102 C 683.328,172.582 709.32,139.238 746.449,139.238 C 775.23,139.238 795.309,156.551 795.309,182.551 C 795.309,238.82 726.648,300.352 663.539,300.352 C 641.68,300.352 609.898,289.398 609.898,281.559 L 609.898,280.129 L 666.012,101.359 C 668.898,91.3594 672.609,82.4297 672.609,77.4297 C 672.609,69.2109 669.719,67.4297 645.801,67.0703 L 645.801,61.3984"
         id="path37"
         style="fill:#cfeeee;fill-opacity:1;fill-rule:nonzero;stroke:none" /></g></g></svg>