<svg id="Layer_1" data-name="Layer 1" xmlns="http://www.w3.org/2000/svg" width="312.28845" height="96" viewBox="0 0 312.28845 96">
  <defs>
    <style>
      .cls-1 {
        fill: #fff;
      }
    </style>
  </defs>
  <g>
    <g>
      <path class="cls-1" d="M344.34379,350.42036A47.80359,47.80359,0,0,1,355.304,319.88865h0a47.89709,47.89709,0,0,1,37.03545-17.46985h0A48.00332,48.00332,0,0,1,440.341,350.42036h0a48.00106,48.00106,0,0,1-48.00156,47.99844h0a47.99957,47.99957,0,0,1-47.99568-47.99844Zm.71288,0a47.13113,47.13113,0,0,0,13.85012,33.43374h0a47.12612,47.12612,0,0,0,33.43268,13.8508h0a47.14162,47.14162,0,0,0,33.43785-13.8508h0a47.12794,47.12794,0,0,0,13.8498-33.43374h0a47.13943,47.13943,0,0,0-13.8498-33.4365h0A47.14165,47.14165,0,0,0,392.33947,303.132h0a47.18431,47.18431,0,0,0-36.48482,17.21044h-.00036a47.09938,47.09938,0,0,0-10.79762,30.07792Z" transform="translate(-344.34379 -302.4188)"/>
      <g>
        <path class="cls-1" d="M354.88962,369.89118a1.136,1.136,0,1,1,1.12279,1.15112A1.1343,1.1343,0,0,1,354.88962,369.89118Z" transform="translate(-344.34379 -302.4188)"/>
        <path class="cls-1" d="M427.13118,370.56917a1.13562,1.13562,0,1,1,1.12236,1.1497A1.13385,1.13385,0,0,1,427.13118,370.56917Z" transform="translate(-344.34379 -302.4188)"/>
      </g>
      <path class="cls-1" d="M425.17413,336.62837a35.54087,35.54087,0,1,0-46.58444,46.57544,35.04335,35.04335,0,0,0,4.05067,1.42923l.03528.0124a19.70848,19.70848,0,0,0,2.09164.52441,35.69237,35.69237,0,0,0,7.66073.826,36.172,36.172,0,0,0,4.70621-.3085h.01141a8.36127,8.36127,0,0,0,1.9591-.31828,35.40179,35.40179,0,0,0,18.44876-9.78177l-.25183-.25176.25183.25176a35.596,35.596,0,0,0,7.62064-38.95891Zm-54.79693,40.788a.3237.3237,0,0,1-.09825-.30991,1.60124,1.60124,0,0,1,.07438-.15082,5.844,5.844,0,0,1,.61154-.87025,12.57661,12.57661,0,0,0,3.1414,3.99705A34.81845,34.81845,0,0,1,370.3772,377.41639Zm-.2954-21.073a2.42564,2.42564,0,0,1,.86161,1.74886,1.61523,1.61523,0,0,1-.047.39428c-.01105.04428-.0221.0775-.0294.09825l-.00481.01247a1.23717,1.23717,0,0,1-1.13384.58938,2.16077,2.16077,0,0,1-.42616-.04428c-1.3822-.2684-2.74739-.80387-3.87606-.94356-.01863-.00277-.04045-.00142-.0605-.00418l2.71247-3.719C368.9632,355.29049,369.73037,356.0044,370.0818,356.34336Zm-5.67712-6.19558,17.666-17.86314-10.59081,24.86394a3.62857,3.62857,0,0,0-.901-1.3171C369.58856,354.87127,365.50671,351.15226,364.40468,350.14778Zm4.76019,9.696a2.96949,2.96949,0,0,0,.56345.05674,2.03506,2.03506,0,0,0,1.36661-.48283,1.69545,1.69545,0,0,0,.41193-.512l.00106-.00276.00106-.00277.00864-.01933.02-.04711,10.86269-25.40487a5.921,5.921,0,0,0,.11965.65682,17.5621,17.5621,0,0,0,1.51225,6.38685,14.08716,14.08716,0,0,0,1.12031,2.04488c.1591.23937.29575.43035.39776.56728.03393.047.06467.08854.08961.12177l-2.533,8.751a.3596.3596,0,0,0,.12.37913l.60362.47872a.20265.20265,0,0,1,.04045.202c-.03528.13148-2.81795,10.403-2.81795,10.403l-8.83573,10.14425a27.70393,27.70393,0,0,1-5.10573-6.2565c-2.20917-3.42843-2.8681-5.59091-2.86357-6.82371a1.9165,1.9165,0,0,1,.33478-1.21749l.00794-.00829.00864-.01247c.01041-.01247.02182-.0277.03251-.04017a.87173.87173,0,0,1,.63748-.30155.37018.37018,0,0,1,.06814.0041C366.32093,359.022,367.709,359.5546,369.16487,359.84376Zm18.73686-37.39239a.35612.35612,0,0,0-.44068-.22485c.15563-.139.30992-.27322.459-.40016l1.53266-.20033a.35757.35757,0,0,0-.09337-.709l-.23348.0311a11.26,11.26,0,0,1,1.37419-.67722c.27329-.11242.50713-.1982.6714-.2553.16428-.05568.2546-.08267.255-.08337a.35667.35667,0,1,0-.20309-.68381,12.04426,12.04426,0,0,0-1.37837.52852.35686.35686,0,0,0-.58456-.40951l-.82009,1.166c-.07332.048-.14735.09719-.21925.14663-.10555.07474-.22137.16152-.3442.25906l.08337-.16321a.35649.35649,0,1,0-.63435-.3255l-.89936,1.74814c-.22307.20649-.43063.40258-.608.571a4.51089,4.51089,0,0,1,1.32716-3.35964,4.09483,4.09483,0,0,1,2.59345-.95845,7.48809,7.48809,0,0,1,1.11344.11c.15492.02039.70385.15251,1.18052.27357.48184.12347.91417.2383.91488.23937l.09272.01105a1.25242,1.25242,0,0,1,.928.27811.74473.74473,0,0,1,.19715.54134,1.12472,1.12472,0,0,1-.16357.5354,1.46816,1.46816,0,0,1-.0889.139l-2.66472.29264a.363.363,0,0,0-.24595.13764l-1.67859,2.212-.82115.00553-.07438.0097a.84309.84309,0,0,0-.35.17986.94234.94234,0,0,0-.329.745,1.95972,1.95972,0,0,0,.47943,1.38913c.02629.02869.05221.05427.07814.07849l-1.09332,1.09615a2.289,2.289,0,0,1-.70491-.32274,1.69374,1.69374,0,0,1-.73261-1.1774,5.50176,5.50176,0,0,1-.07473-.8609,2.97,2.97,0,0,1,.04356-.53681l.01318-.0097c.00035-.00107.1608-.15776.41192-.39811l1.50914-.51578A.35751.35751,0,0,0,387.90173,322.45137Zm5.45781,2.72734a.18745.18745,0,0,1-.0889.16392.35572.35572,0,0,0-.1771.25325.42563.42563,0,0,0,.08642.296.11394.11394,0,0,1-.00722.11c-.02388.04286-.0702.12418-.0702.12418a.35479.35479,0,0,0-.0294.28711l.00411.01416a1.13421,1.13421,0,0,1,.03705.28187.41033.41033,0,0,1-.19474.32932,1.93505,1.93505,0,0,1-.65377.11207l-.753-.01523a.35528.35528,0,0,0-.3573.29193,1.47322,1.47322,0,0,0-.02041.25976,1.66245,1.66245,0,0,0,.18815.78659,1.34464,1.34464,0,0,0,.24772.332l.00376.00517h-.00064l1.27006,1.423-3.29044.22378-2.24033-1.753c.11-.055.174-.08748.174-.08748a.35409.35409,0,0,0,.19856-.31927V327.2627l1.43851-1.442a.3566.3566,0,0,0-.15046-.5942v-.00106c-.06531-.045-.49629-.18227-.51053-1.06363.00489-.14459.04016-.16357.07126-.19715a.21228.21228,0,0,1,.03493-.02281l.93534-.00793a.35836.35836,0,0,0,.28152-.14047s1.49737-1.97951,1.6008-2.10751a.39031.39031,0,0,1,.25941-.1397l2.02866-.22172a.11937.11937,0,0,1,.1193.12c.01728.18779.03874.4144.06155.66135.00454.10413-.064.14288-.10307.14387-.258.00793-.52639.01523-.81251.02663a1.47463,1.47463,0,0,0-.8422.33032.35931.35931,0,0,0-.01664.52853,1.335,1.335,0,0,0,.45485.16463,1.54789,1.54789,0,0,0,.65688.12417.38749.38749,0,0,0,.25247-.37941.30793.30793,0,0,1,.31651-.31785.141.141,0,0,1,.13664.13417c.03627.35561.101.80557.12312,1.06088.01041.12481.02111.24106.02833.339.00312.12694-.10824.13728-.16533.14316-.11823.01523-.21167.01835-.21167.01941a.35658.35658,0,0,0-.33931.38047Zm-4.13759,5.925a.35576.35576,0,0,0,.22037.07509h.02352l4.15445-.28257a.35715.35715,0,0,0,.24213-.59356l-.74749-.83738c.43445.13311.809.24935,1.09821.33755a2.53287,2.53287,0,0,1,.9758.881,8.15137,8.15137,0,0,1,.82391,1.342c-.14706.73672-.35837,1.4631-.58214,2.19436l-1.84116,1.39877-4.00718-2.70007a20.055,20.055,0,0,0-2.03207-2.55818,2.55145,2.55145,0,0,0-1.82146-.6544c-.12418.00106-.24871.00828-.3736.02075.17575-.09584.35143-.18992.523-.28052.26118-.13834.512-.2684.73466-.38394Zm-3.49311-.68309a1.853,1.853,0,0,1,1.31646.44444,15.3218,15.3218,0,0,1,1.3438,1.60633c.38047.5123.63811.90141.63917.9024a.34443.34443,0,0,0,.09755.099l4.27764,2.87986a.35478.35478,0,0,0,.41539-.01069l5.4464-4.1393.02317-.01933s.12035-.10895.27846-.24114a5.274,5.274,0,0,1,.478-.36453,5.85424,5.85424,0,0,1,2.24961-.92076c.06751-.00311.13254-.00517.19445-.00517a1.50655,1.50655,0,0,1,.77476.15146c.1297.09308.18814.1671.1982.43338,0,.43551.00723,1.07922.00723,1.07922a.32563.32563,0,0,0,.2961.3175c.13459,0,.31445.0391.31445.24524a.24939.24939,0,0,1-.23766.28088c-.13041.01594-.25247.03145-.30262.03875l-.3362-.00107-.09032.01105c-.00106,0-.45931.11937-.95327.23731-.24623.0588-.50118.11866-.70767.16151-.10272.02147-.19438.04017-.2643.05193-.03386.00516-.06326.01034-.08437.01247l-.02593.003c-.31508.00106-.8028.05469-.81046.05575a.35973.35973,0,0,0-.25246.14869c-.00177.00213-.60362.85785-1.36,1.86715a30.96051,30.96051,0,0,1-2.25449,2.76156c-.6078.60843-1.1128,1.06917-1.46388,1.3749-.10958.09549-.204.175-.28186.24007a.24118.24118,0,0,1-.23866.036c-.523-.21514-1.63849-.6617-2.98122-1.2362-1.87474-.80111-4.19257-1.84123-5.95035-2.78238a5.82171,5.82171,0,0,1-1.4825-1.10168c-.05568-.05809-.10895-.11929-.16151-.1805l-.0498-.0595q-.05919-.07268-.11419-.147c-.02834-.03839-.05568-.07785-.08267-.1166-.02316-.03386-.04527-.06744-.06744-.10236-.02486-.0391-.04944-.07991-.07367-.12071l-.02734-.05121a2.92334,2.92334,0,0,1-.13-.26671l-.01665-.03733c-.02111-.054-.04186-.10725-.05986-.16088v-.001l-.001-.00311a2.52191,2.52191,0,0,1-.07856-.294c-.00864-.04286-.01728-.08572-.02415-.12936-.00489-.03286-.00936-.066-.01283-.09853a2.32723,2.32723,0,0,1-.01558-.25148c0-.056.00276-.11313.00659-.16987.00382-.047.009-.09577.01558-.14387l.00206-.02387a2.80839,2.80839,0,0,1,.07367-.35037v-.00106l.00035-.00135c.01969-.07161.04321-.14529.06985-.22037l.00418-.01141c.02522-.06815.05327-.13934.08437-.20961l.01317-.03039c.02975-.065.06291-.13218.09755-.2.00828-.01417.01523-.02939.02316-.04455.04357-.08026.091-.16194.14281-.24595h0A2.59006,2.59006,0,0,1,385.72884,330.42067Zm11.184-5.44257c0-.1567.05462-.18263.0809-.17915a1.592,1.592,0,0,1,1.03077.54644,1.44591,1.44591,0,0,1,.22867.38982,1.24417,1.24417,0,0,1,.0408.12319l.00659.02869.00028.00071a.35792.35792,0,0,0,.35249.2971h6.96347a.35627.35627,0,0,0,.35313-.3044.987.987,0,0,1,.28569-.47383,1.77445,1.77445,0,0,1,1.04912-.43446c.07572-.01664.08854.05774.08854.12348,0,.73742-.02592,2.2739-.02592,4.50453a15.22152,15.22152,0,0,0,.91764,4.73143,15.12308,15.12308,0,0,1,.88406,4.73277,7.072,7.072,0,0,1-.54992,2.7765,3.80945,3.80945,0,0,0-.73679-.32932.56783.56783,0,0,0-.14869-.01934,1.15124,1.15124,0,0,0-.64371.26147,1.20755,1.20755,0,0,0-.41093.46215.61713.61713,0,0,0-.03981.2186.96191.96191,0,0,0,.12213.433c-.074.06085-.16052.13282-.25006.21307a4.11136,4.11136,0,0,0-.34173.33621,1.14764,1.14764,0,0,0-.25877.4081,1.08881,1.08881,0,0,0-.05185.33485,1.37969,1.37969,0,0,0,.16222.62125,8.018,8.018,0,0,1-4.07079.99754,6.93238,6.93238,0,0,1-5.22085-2.00755,6.17026,6.17026,0,0,1-1.57623-3.13382c.35143-.29745.96815-.84049,1.75127-1.6263.1331-.13424.27875-.29164.43232-.46456a4.42327,4.42327,0,0,0,1.40983,2.19464,5.42222,5.42222,0,0,0,3.35376,1.23415.36049.36049,0,0,0,.06744.00694.19882.19882,0,0,0,.02805-.00276c.02869.00134.05738.0041.08642.0041a4.89955,4.89955,0,0,0,4.69616-5.01124,15.54109,15.54109,0,0,0-.5337-3.27867,29.54307,29.54307,0,0,1-.51988-6.17342.35723.35723,0,0,0-.357-.356h-6.87485a.35929.35929,0,0,0-.25289.10378.36493.36493,0,0,0-.10477.25218,27.536,27.536,0,0,1-.32862,4.74248l-1.61462,1.2265c.12836-.46413.24355-.93528.33379-1.41677a.32077.32077,0,0,0,.01247-.06156,10.8228,10.8228,0,0,0,.18957-1.91964C396.92809,327.74518,396.91838,325.87257,396.91285,324.9781Zm9.91354,19.75863a1.07882,1.07882,0,0,1-.25389-.577.41258.41258,0,0,1,.01906-.12312h.0017a2.36274,2.36274,0,0,1,.432-.458c.19261-.16881.36524-.29886.36595-.30021a.39406.39406,0,0,0,.157-.31828.55332.55332,0,0,0-.065-.24765c-.02451-.05114-.05016-.09407-.06914-.13417a.25083.25083,0,0,1,.06779-.27945.30875.30875,0,0,1,.32862-.05674,4.33574,4.33574,0,0,1,.55927.27669,2.11237,2.11237,0,0,1,.73955.65164,1.41877,1.41877,0,0,1,.20748.642.41129.41129,0,0,1-.10753.27393c-.11454.13141-1.16323,1.01136-1.27119,1.0778a6.52483,6.52483,0,0,1-.94151.41228c-.11136.04151-.21861.08026-.31474.11483-.13076.05533-.15152-.0318-.15152-.0318a.131.131,0,0,1,.02529-.1273,1.6662,1.6662,0,0,0,.17809-.16739.57662.57662,0,0,0,.16987-.38465A.42318.42318,0,0,0,406.82639,344.73673Zm1.0484,24.77815a.16217.16217,0,0,1-.07091.15216c-.08408.047-2.59317,1.45552-2.59317,1.45552l-.29051-25.077a7.92391,7.92391,0,0,0,.81974-.31962Zm-11.49358,11.59559s.92628,1.19957.96156,1.25348a.10824.10824,0,0,1-.018.137,12.33011,12.33011,0,0,1-6.27,2.23027c.40959-1.88713,1.98716-9.31827,3.15627-16.88351,1.2044-7.80057,1.73951-15.20671,1.84329-16.74666,0,0,.93733-.06227,1.10125-.07743.16328-.01665.18439.08019.18056.17986-.00347.10094-1.02828,29.67733-1.02828,29.67733A.35962.35962,0,0,0,396.38121,381.11047Zm-12.4489-29.43663s2.32229-8.02321,2.35339-8.13116a.21465.21465,0,0,1,.1387-.13836s1.69906-.476,1.96987-.5645a3.91912,3.91912,0,0,1,.715-.12036l5.84-.357a6.64405,6.64405,0,0,0,2.95565,3.18907s-.01246,4.44127-.01246,4.52564c0,.08444-.04116.17851-.22832.19509-.18743.01523-5.87426.41228-7.291.51329a3.387,3.387,0,0,0-.65887.108c-.2162.06085-5.16765,1.41677-5.16765,1.41677a.407.407,0,0,1-.25417-.03875c-.08444-.06779-.12907-.10378-.28087-.22413C383.85928,351.92567,383.93231,351.67384,383.93231,351.67384Zm2.19393-9.01112a15.18431,15.18431,0,0,1-2.75844-7.26127c.03875.04392.0775.08755.11653.12907a6.50629,6.50629,0,0,0,1.66895,1.24172c3.57613,1.9166,9.31927,4.17769,9.32515,4.18045l.01147.00276a7.07792,7.07792,0,0,0,.19332.70973l-5.38824.32933a5.72992,5.72992,0,0,0-1.08857.15768c-.551.155-1.8107.51329-1.89542.541A.1593.1593,0,0,1,386.12624,342.66272Zm11.93391,8.25571.25977-.05257a.35915.35915,0,0,0,.285-.34867l.01211-4.63076a8.81591,8.81591,0,0,0,3.32161.606h.01176a9.94955,9.94955,0,0,0,2.25832-.25041l.33237,28.68389.00106.018s.00135.01941.00135.072a2.424,2.424,0,0,1-.91658,1.92588,11.994,11.994,0,0,1-6.54007,2.06153Zm-.13976-13.06322c.834-1.02311,1.75331-2.27872,2.26937-2.99334v5.95658a4.2844,4.2844,0,0,1-.98019-.61984A3.72392,3.72392,0,0,1,397.92039,337.85521Zm2.983,3.22336v-6.68465c.06361-.00383.12517-.00589.174-.00589a3.19613,3.19613,0,0,0,.5223-.08167c.06673-.01452.13728-.03039.21131-.047V341.246A4.94331,4.94331,0,0,1,400.90339,341.07857Zm1.62148.18127v-7.16826c.32862-.08062.61467-.15358.72121-.17986h.13211v7.18894A3.62577,3.62577,0,0,1,402.52487,341.25984Zm2.21547-8.79046a.56509.56509,0,0,0-.3656-.40023c-.06333-.01828-.13076-.03528-.19473-.04945-.00177-.22484-.00418-.53851-.00418-.78312a1.2698,1.2698,0,0,0-.08373-.486v-2.87327h1.12038a29.63685,29.63685,0,0,0,.53228,5.95863,15.009,15.009,0,0,1,.51952,3.13615,4.49816,4.49816,0,0,1-1.15594,3.00716,4.086,4.086,0,0,1-1.01624.81287v-6.94371c.02564-.00312.05228-.00659.07473-.00872.03457-.0024.06539-.00651.0882-.00863l.03046-.00206a.39871.39871,0,0,0,.275-.11065.76419.76419,0,0,0,.18921-.40711,2.23982,2.23982,0,0,0,.04392-.43275A1.40687,1.40687,0,0,0,404.74034,332.46938Zm-1.36215-4.592v2.19323a2.53377,2.53377,0,0,0-.85332-.13176v-2.06147Zm-1.56722,0v2.13032a4.85414,4.85414,0,0,0-.90758.30021v-2.43053Zm-1.62121,0v2.78678c-.23964.13318-.424.24907-.5247.30956a8.184,8.184,0,0,0-.84049.66722l-.00206.00213a30.50549,30.50549,0,0,0,.22654-3.76569ZM371.93437,374.9758c.09-.10243,9.71121-11.14873,9.71121-11.14873a.35592.35592,0,0,0,.07474-.13977s2.84635-10.50538,2.866-10.5787a.13967.13967,0,0,1,.09407-.09407s5.04617-1.38078,5.24026-1.43752a3.08026,3.08026,0,0,1,.47455-.07884l2.80172-.19651c-.03322.32656-.091.85233-.18333,1.52749-.477,3.5502-1.9297,11.21235-5.48061,15.38514a20.22865,20.22865,0,0,1-15.33783,6.88321c-.06085,0-.11865,0-.175-.00134C371.91609,375.09616,371.84447,375.07951,371.93437,374.9758Zm-.1715.83009c.12828.00276.2718.00418.43232.00552a20.94887,20.94887,0,0,0,15.88258-7.135c4.52734-5.37379,5.66259-15.6301,5.83969-17.42458l1.41811-.101c-.05051.73473-.176,2.47381-.39669,4.82585-.2954,3.15457-.7596,7.39792-1.43342,11.76305-.6748,4.36512-1.48661,8.69015-2.13,11.92491-.476,2.39221-.85849,4.18109-1.0256,4.95315a.27689.27689,0,0,1-.26939.19785c-.39231,0-.78865.036-1.18924.03457a20.96073,20.96073,0,0,1-3.97353-.37771c-.69457-.15357-1.3846-.32515-2.06911-.52158a20.956,20.956,0,0,1-9.40406-5.51625,11.19814,11.19814,0,0,1-1.62709-2.24557c-.04909-.09131-.092-.17426-.13041-.25176C371.64556,375.85292,371.692,375.80312,371.76287,375.80589Zm20.51022,9.47327a12.55652,12.55652,0,0,0,5.16135-1.97023l1.12137.32239a.428.428,0,0,0,.12588.01523s1.04323-.05674,1.12972-.06369c.2971-.01792.43028.15776.433.22.0017.06227.00864.13976.00864.13976a.43038.43038,0,0,1-.10895.30574,7.02885,7.02885,0,0,1-1.20956.42616,34.98692,34.98692,0,0,1-6.50657.60737C392.37651,385.28192,392.32459,385.27916,392.27309,385.27916ZM424.5159,364.0138a34.97115,34.97115,0,0,1-18.53454,18.53284,34.2905,34.2905,0,0,1-5.00331,1.67965l-.03974-.69322c0-.41781-.47285-.62671-.73155-.62671l-1.49773.02352s-.46073-.11207-.51641-.13006a.05842.05842,0,0,1-.03287-.0872.35708.35708,0,0,0,.00829-.4455l-1.14213-1.49009.0367-1.05981a12.69714,12.69714,0,0,0,6.98522-2.19846,3.12719,3.12719,0,0,0,1.20928-2.50286c0-.05533-.00178-.09273-.00213-.1093l-.03457-2.97606c.0107-.00553.02182-.00687.03252-.0124l-.00036-.00142,3.18291-1.78618a.35866.35866,0,0,0,.1812-.34314l-2.08987-23.28532c.091-.03038.38706-.13282.7205-.25728a6.628,6.628,0,0,0,1.08921-.48843c.22866-.16052,1.1871-.96708,1.41853-1.20644a1.0604,1.0604,0,0,0,.276-.73743,2.113,2.113,0,0,0-.30022-.99344,2.14226,2.14226,0,0,0-.50847-.57414,7.74145,7.74145,0,0,0,.66064-3.1805,15.81061,15.81061,0,0,0-.91694-4.94416,14.55458,14.55458,0,0,1-.88512-4.52c0-3.13863.03287-5.002.03287-5.00607a.35892.35892,0,0,0-.10236-.25629.35447.35447,0,0,0-.25459-.1069,2.69969,2.69969,0,0,0-2.06671.733,1.77359,1.77359,0,0,0-.33379.50777h-6.43941a2.16327,2.16327,0,0,0-.34208-.58045,2.49129,2.49129,0,0,0-2.02278-.83944.35845.35845,0,0,0-.35731.36043c0,.00552.02,2.3672.01934,5.67882.00177.26075-.01105.51811-.0328.77306-.13148-.20827-.274-.41582-.42482-.6136a3.07961,3.07961,0,0,0-1.3341-1.13044c-.46625-.1421-1.157-.35759-1.96668-.60425a.78146.78146,0,0,1-.50366-.37977.87977.87977,0,0,1-.0906-.27945l.39464.00793h.01941a2.65327,2.65327,0,0,0,.91835-.166.94332.94332,0,0,0,.57556-.58,1.39128,1.39128,0,0,0,.05879-.40923,1.82576,1.82576,0,0,0-.03563-.35207l.16881-.29681a.354.354,0,0,0,.02111-.311.35923.35923,0,0,0,.11235-.28463l-.02487-.36665.05327-.009a1.42372,1.42372,0,0,0,.33861-.09924.63791.63791,0,0,0,.18815-.12729.45978.45978,0,0,0,.13494-.32c-.00141-.09683-.02146-.3248-.05192-.68309-.07679-.87925-.21754-2.37-.26076-2.83318a1.98724,1.98724,0,0,0,.40747-1.12137,1.45772,1.45772,0,0,0-.4047-1.04458,1.91967,1.91967,0,0,0-1.38879-.48807c-.27634-.07332-1.71662-.45592-2.13379-.51819a8.11372,8.11372,0,0,0-1.21339-.11582,4.81728,4.81728,0,0,0-3.02925,1.10614c-1.47769,1.16395-1.59875,3.24857-1.60874,4.17556,0,.17887.00616.31757.01105.39882a3.04547,3.04547,0,0,0-.12418.94569,6.209,6.209,0,0,0,.08338.974,2.44031,2.44031,0,0,0,1.222,1.77266,3.0776,3.0776,0,0,0,.67828.2881v.679a26.94649,26.94649,0,0,0-3.773,2.103,1.95684,1.95684,0,0,0-.30921.26394l-.01105.00829L363.6351,349.91118a.35655.35655,0,0,0,.01353.51471c.0034.00276,1.32609,1.20644,2.79407,2.54989.36595.33485.74054.67658,1.10614,1.01278l-3.52739,4.83832a2.62179,2.62179,0,0,0-.48666,1.65747c.00453,1.47627.73537,3.719,2.97641,7.20978a28.46445,28.46445,0,0,0,5.23707,6.40859l-.93145,1.06952a9.86866,9.86866,0,0,0-.63747.75683,5.34474,5.34474,0,0,0-.45379.68763c-.03117.05944-.06057.11759-.08784.1771q-.9459-.81978-1.84052-1.71153a34.808,34.808,0,1,1,56.7187-11.06847Z" transform="translate(-344.34379 -302.4188)"/>
      <g>
        <path class="cls-1" d="M351.71918,353.4448a3.187,3.187,0,0,1,1.05323.01112,1.61679,1.61679,0,0,1,.744.35972,1.84917,1.84917,0,0,1,.4829.71667,4.46874,4.46874,0,0,1,.26048,1.075,3.997,3.997,0,0,1,.01452.99337,1.96625,1.96625,0,0,1-.27153.80521,1.71058,1.71058,0,0,1-.60014.57422,4.13944,4.13944,0,0,1-.86819.27946c-.0588.01246-.15429.02769-.21273.036l-3.14931.41228a.13368.13368,0,0,0-.11276.12177l-.02664.4635a.138.138,0,0,1-.1138.12311l-.139.01665a.10807.10807,0,0,1-.12141-.09273l-.27705-2.121a.10957.10957,0,0,1,.09373-.12177l.1387-.018a.13879.13879,0,0,1,.14112.08855l.14355.43445a.13708.13708,0,0,0,.14146.08854l3.525-.46072a1.36852,1.36852,0,0,0,.97091-.52024,1.60823,1.60823,0,0,0,.22343-1.19958,1.50873,1.50873,0,0,0-.53682-1.09573,2.94335,2.94335,0,0,0-1.16635-.19784c-.0595,0-.156.00829-.21442.01523l-3.19951.41921a.13254.13254,0,0,0-.1131.12171l-.02733.46215a.136.136,0,0,1-.11345.12311l-.1387.018a.108.108,0,0,1-.12106-.09408l-.24835-1.901a.10831.10831,0,0,1,.09235-.12176l.139-.018a.13566.13566,0,0,1,.14112.08855l.14527.44274a.13793.13793,0,0,0,.14044.08855Z" transform="translate(-344.34379 -302.4188)"/>
        <path class="cls-1" d="M347.91684,348.5124a.22934.22934,0,0,1,.101-.16186l4.44884-2.65091-3.72281-.27393a.13736.13736,0,0,0-.13628.09549l-.12.44132a.13655.13655,0,0,1-.13593.09549l-.13974-.0097a.109.109,0,0,1-.09927-.11618l.13836-1.82911a.10858.10858,0,0,1,.11622-.0996l.13939.01105a.13556.13556,0,0,1,.11968.11483l.05223.46215a.13719.13719,0,0,0,.11968.11617l5.27206.39988a.10919.10919,0,0,1,.1.11625l-.03982.51882a.23385.23385,0,0,1-.10129.16321l-5.1396,3.01346,4.33091.32783a.13416.13416,0,0,0,.13593-.09541l.12-.44a.13325.13325,0,0,1,.13594-.09549l.14005.00971a.10789.10789,0,0,1,.09967.11483l-.13906,1.83046a.10973.10973,0,0,1-.11589.0996l-.13941-.01106a.136.136,0,0,1-.12035-.11624l-.05185-.46208a.13544.13544,0,0,0-.11937-.11483l-4.739-.35971a.13575.13575,0,0,0-.13593.09683l-.12175.44827a.13406.13406,0,0,1-.1356.09549l-.13938-.00971a.108.108,0,0,1-.09962-.11624Z" transform="translate(-344.34379 -302.4188)"/>
        <path class="cls-1" d="M349.7435,338.63932a.136.136,0,0,1,.09889.13353l-.02486.45656a.13594.13594,0,0,0,.09853.13494l4.61143,1.15112a.13589.13589,0,0,0,.15011-.07055l.19233-.41511a.1361.1361,0,0,1,.15046-.0719l.13629.03386a.1085.1085,0,0,1,.07813.13076l-.51811,2.0767a.10758.10758,0,0,1-.13041.0775l-.13665-.03457a.13581.13581,0,0,1-.09853-.13424l.02486-.45521a.13764.13764,0,0,0-.09889-.13417l-4.61143-1.15112a.13417.13417,0,0,0-.14975.07056l-.193.415a.13853.13853,0,0,1-.15011.072l-.13593-.036a.10485.10485,0,0,1-.07852-.12864l.51813-2.07535a.108.108,0,0,1,.13112-.07884Z" transform="translate(-344.34379 -302.4188)"/>
        <path class="cls-1" d="M356.96915,335.13963a.17173.17173,0,0,1,.03492.1754l-.25006.58831a.16557.16557,0,0,1-.15018.09237l-5.59749-.37842a.21954.21954,0,0,0-.17122.07955l-.20578.28229a.1429.1429,0,0,1-.16293.04527l-.12935-.05568a.10727.10727,0,0,1-.05674-.14111l.76788-1.80453a.10794.10794,0,0,1,.14111-.05667l.12935.055a.13954.13954,0,0,1,.07991.148l-.06609.35972a.09551.09551,0,0,0,.08791.11482l4.49582.34831-3.30149-3.15938a.09051.09051,0,0,0-.13906.01558l-.24729.36355a.13706.13706,0,0,1-.16017.04774l-.12935-.055a.10847.10847,0,0,1-.05674-.14182l.69181-1.625a.10856.10856,0,0,1,.14181-.05709l.12865.05539a.1354.1354,0,0,1,.07714.14735l-.08749.42332a.21741.21741,0,0,0,.05568.18022Z" transform="translate(-344.34379 -302.4188)"/>
        <path class="cls-1" d="M368.21507,319.77864a2.43854,2.43854,0,0,0,.42057-.15769,2.15525,2.15525,0,0,0,.35455-.20373,1.526,1.526,0,0,0,.60255-.76718.87812.87812,0,0,0-.16917-.798.91486.91486,0,0,0-.39464-.32061,1.35865,1.35865,0,0,0-.4739-.09131,2.527,2.527,0,0,0-.51847.04562c-.17851.03357-.35731.063-.53405.08961-.26876.03563-.51159.06814-.72984.09612a2.409,2.409,0,0,1-.59838.00935,1.2823,1.2823,0,0,1-.49983-.16222,1.45339,1.45339,0,0,1-.43544-.41093,1.36638,1.36638,0,0,1-.27082-.63783,1.40692,1.40692,0,0,1,.0719-.66439,2.16981,2.16981,0,0,1,.38536-.66035,3.84844,3.84844,0,0,1,.6724-.623,3.15259,3.15259,0,0,1,.33861-.2186c.12559-.07261.25424-.14076.38536-.20685.13105-.064.26075-.12418.3901-.17674.12907-.05327.248-.091.248-.091a.21157.21157,0,0,1,.13006-.01.61248.61248,0,0,1,.08026.11546l.45039.79318a.127.127,0,0,1-.03394.15875l-.29645.219a.146.146,0,0,1-.16945-.00524l-.5524-.46279a1.01438,1.01438,0,0,0-.34207.07955,1.88047,1.88047,0,0,0-.42822.247,1.2864,1.2864,0,0,0-.51677.68274.80057.80057,0,0,0,.15082.71639.88431.88431,0,0,0,.34867.30156,1.00271,1.00271,0,0,0,.39917.08408,2.06459,2.06459,0,0,0,.44026-.04569q.22782-.04718.47044-.0906.33459-.04569.699-.11a3.29256,3.29256,0,0,1,.70668-.04768,1.88208,1.88208,0,0,1,.64576.1397,1.16291,1.16291,0,0,1,.52024.44762,1.75771,1.75771,0,0,1,.31438.79587,1.50717,1.50717,0,0,1-.10166.72362,2.144,2.144,0,0,1-.44451.66651,5.552,5.552,0,0,1-.7139.623,5.06748,5.06748,0,0,1-.77065.46938c-.26735.1314-.616.27287-.616.27287-.055.02182-.111.02911-.12312.01452a.75866.75866,0,0,1-.07785-.11688l-.45556-.7883a.12384.12384,0,0,1,.03251-.158l.29682-.22a.14336.14336,0,0,1,.16916.00553Z" transform="translate(-344.34379 -302.4188)"/>
        <path class="cls-1" d="M372.47536,311.01517a.13825.13825,0,0,1-.03216.164l-.35526.28774a.13694.13694,0,0,0-.03216.16258l2.25,4.18838a.13687.13687,0,0,0,.15393.06191l.4365-.13657a.13681.13681,0,0,1,.15429.06325l.066.12312a.109.109,0,0,1-.04356.14671l-1.88444,1.01242a.10862.10862,0,0,1-.14628-.04392l-.0661-.12383a.13482.13482,0,0,1,.03252-.16293l.35391-.2888a.13448.13448,0,0,0,.03315-.16293l-2.25067-4.186a.13387.13387,0,0,0-.15358-.063l-.43615.1353a.13594.13594,0,0,1-.15429-.06191l-.06644-.12354a.10883.10883,0,0,1,.04363-.14664l1.88437-1.01349a.11.11,0,0,1,.14635.045Z" transform="translate(-344.34379 -302.4188)"/>
        <path class="cls-1" d="M374.816,309.64756a.22651.22651,0,0,1,.12418-.099l4.39835-1.59974a.29222.29222,0,0,1,.15322-.01934.22625.22625,0,0,1,.09167.11724l.37905.94116a.10287.10287,0,0,1-.0612.13629l-.35384.12935a.14587.14587,0,0,1-.16222-.05291l-.30956-.45833a.15568.15568,0,0,0-.16364-.05879l-.46037.13629c-.05667.01665-.14869.047-.20473.06708l-.44691.16194,1.651,4.54633a.1355.1355,0,0,0,.14387.083l.451-.0719a.13589.13589,0,0,1,.14359.08437l.04838.13246a.10724.10724,0,0,1-.06467.13764l-2.01032.73127a.10777.10777,0,0,1-.13835-.065l-.04774-.13247a.1339.1339,0,0,1,.055-.15534l.39294-.23518a.13556.13556,0,0,0,.05532-.1567l-1.65372-4.54534-.44585.16393c-.05639.02012-.14628.056-.20132.08061l-.44.19126a.15684.15684,0,0,0-.08819.15082l.05745.54928a.145.145,0,0,1-.09.14458l-.35419.128a.10342.10342,0,0,1-.13488-.06609l-.30233-.93216A.32325.32325,0,0,1,374.816,309.64756Z" transform="translate(-344.34379 -302.4188)"/>
        <path class="cls-1" d="M385.586,310.2674l-1.965.37147-.303,1.8a.09135.09135,0,0,0,.0899.10895l.4071.007a.13792.13792,0,0,1,.12765.10894l.02664.13764a.10948.10948,0,0,1-.08579.12595l-1.71974.3248a.109.109,0,0,1-.12559-.0865l-.02593-.13834a.13815.13815,0,0,1,.0792-.14735l.35143-.14982a.22491.22491,0,0,0,.12-.14734l1.08474-5.65254a.17432.17432,0,0,1,.12624-.12659l.75372-.14217a.16236.16236,0,0,1,.1591.07438l2.79719,4.91546a.21119.21119,0,0,0,.16123.09649l.37317.01246a.13973.13973,0,0,1,.128.10895l.02628.138a.10749.10749,0,0,1-.0865.12559l-1.9681.37254a.11.11,0,0,1-.12658-.08543l-.02529-.1387a.13924.13924,0,0,1,.07891-.14841l.35207-.14975a.09518.09518,0,0,0,.04774-.13629Zm-1.42852-2.58624-.45,2.50045,1.65641-.31232Z" transform="translate(-344.34379 -302.4188)"/>
        <path class="cls-1" d="M391.02818,311.479a2.45707,2.45707,0,0,0,.4324.12042,2.12917,2.12917,0,0,0,.4064.04455,1.51269,1.51269,0,0,0,.93945-.26216.87808.87808,0,0,0,.33585-.743.90945.90945,0,0,0-.12935-.49083,1.32151,1.32151,0,0,0-.32827-.35519,2.54735,2.54735,0,0,0-.44585-.26982c-.16322-.07821-.32544-.15981-.48355-.24418q-.35639-.19254-.6454-.3532a2.43012,2.43012,0,0,1-.48843-.34484,1.29039,1.29039,0,0,1-.3068-.42751,1.46132,1.46132,0,0,1-.109-.588,1.37544,1.37544,0,0,1,.15839-.6748,1.40884,1.40884,0,0,1,.45138-.4936,2.11118,2.11118,0,0,1,.70116-.30439,3.81413,3.81413,0,0,1,.91041-.10584,3.60893,3.60893,0,0,1,.40258.02352c.14458.01594.28845.03733.43239.06191q.21687.03794.41951.0865c.13565.03386.25424.07438.25424.07438a.2199.2199,0,0,1,.11107.06814.70791.70791,0,0,1-.00418.14246l-.10583.90489a.12453.12453,0,0,1-.12.10788l-.36907.00107a.14355.14355,0,0,1-.13353-.10378l-.17228-.7001a1.03179,1.03179,0,0,0-.323-.1387,1.90907,1.90907,0,0,0-.49119-.05291,1.28593,1.28593,0,0,0-.82081.24524.80233.80233,0,0,0-.30226.66687.90094.90094,0,0,0,.10378.44968,1.00074,1.00074,0,0,0,.27251.30333,2.05879,2.05879,0,0,0,.38189.22272q.21219.09754.43339.20656c.1982.10583.40711.21407.62847.32409a3.24176,3.24176,0,0,1,.59838.37806,1.90245,1.90245,0,0,1,.43827.495,1.16208,1.16208,0,0,1,.15492.66857,1.76741,1.76741,0,0,1-.21612.82739,1.50956,1.50956,0,0,1-.50954.52406,2.13669,2.13669,0,0,1-.75337.27492,5.47335,5.47335,0,0,1-.94427.07927,4.86679,4.86679,0,0,1-.89823-.0765c-.2937-.05186-.65858-.14317-.65858-.14317-.05674-.01558-.10654-.04186-.1086-.06057a.92867.92867,0,0,1,.00723-.14146l.0986-.90517a.1241.1241,0,0,1,.1193-.10725l.36906-.002a.14575.14575,0,0,1,.13424.10377Z" transform="translate(-344.34379 -302.4188)"/>
        <path class="cls-1" d="M406.38605,313.88334a2.84442,2.84442,0,0,1-2.29083.09131,3.417,3.417,0,0,1-1.07675-.55481,2.32136,2.32136,0,0,1-.66793-.82257,2.51272,2.51272,0,0,1-.23653-1.07016,4.064,4.064,0,0,1,.22031-1.29676,4.12162,4.12162,0,0,1,.61155-1.22826,2.6149,2.6149,0,0,1,.853-.74813,2.40379,2.40379,0,0,1,1.05145-.27882,3.4368,3.4368,0,0,1,1.20163.18022,3.39559,3.39559,0,0,1,1.07193.55275,2.32539,2.32539,0,0,1,.67551.82944,2.56622,2.56622,0,0,1,.24177,1.08092,4.06685,4.06685,0,0,1-.21995,1.30952A3.18961,3.18961,0,0,1,406.38605,313.88334Zm.5337-4.2707a1.49178,1.49178,0,0,0-1.03282-1.00342,1.52653,1.52653,0,0,0-1.432.18743,3.29166,3.29166,0,0,0-1.03317,1.70558,3.45571,3.45571,0,0,0-.18227,2.018,1.48851,1.48851,0,0,0,1.03665,1.00441,1.5268,1.5268,0,0,0,1.432-.18609,3.297,3.297,0,0,0,1.03389-1.70692A3.43787,3.43787,0,0,0,406.91975,309.61264Z" transform="translate(-344.34379 -302.4188)"/>
        <path class="cls-1" d="M409.87094,315.6273a2.44719,2.44719,0,0,0,.32062.31438,2.11378,2.11378,0,0,0,.33513.2342,1.51741,1.51741,0,0,0,.94952.22172.87839.87839,0,0,0,.652-.49013.91167.91167,0,0,0,.12312-.49325,1.36563,1.36563,0,0,0-.11653-.46866,2.56982,2.56982,0,0,0-.26153-.44968c-.1069-.14806-.20926-.29611-.30751-.44685-.14628-.227-.278-.43445-.3957-.61984a2.47154,2.47154,0,0,1-.26218-.53858,1.29149,1.29149,0,0,1-.06361-.52194,1.47147,1.47147,0,0,1,.18779-.56762,1.36831,1.36831,0,0,1,.4635-.515,1.39785,1.39785,0,0,1,.63265-.2169,2.16049,2.16049,0,0,1,.76166.07126,3.79855,3.79855,0,0,1,.84842.34484,3.29875,3.29875,0,0,1,.34173.21414c.11936.083.23525.17186.34973.26182q.17118.138.32614.27847c.10278.09442.18715.18708.18715.18708.03946.04392.06886.09443.06333.11384a.56926.56926,0,0,1-.07091.1217l-.52753.74231a.12806.12806,0,0,1-.158.038l-.32345-.17745a.1434.1434,0,0,1-.06744-.15563l.18546-.69627a1.01062,1.01062,0,0,0-.21585-.27641,1.9161,1.9161,0,0,0-.4054-.28328,1.29041,1.29041,0,0,0-.83809-.1788.803.803,0,0,0-.58527.43927.89664.89664,0,0,0-.12517.44309,1.00124,1.00124,0,0,0,.09231.39812,2.207,2.207,0,0,0,.228.37948q.14005.18573.28088.3884.18318.28223.39464.58527a3.29059,3.29059,0,0,1,.34314.62082,1.93269,1.93269,0,0,1,.147.64407,1.17027,1.17027,0,0,1-.18573.66169,1.78626,1.78626,0,0,1-.588.62154,1.52481,1.52481,0,0,1-.69939.21308,2.11237,2.11237,0,0,1-.79239-.12142,5.47919,5.47919,0,0,1-.86614-.38323,4.9713,4.9713,0,0,1-.75025-.49913c-.23313-.18814-.508-.44274-.508-.44274-.04364-.04151-.07367-.08819-.06645-.10583a.847.847,0,0,1,.07367-.12l.52194-.74713a.12714.12714,0,0,1,.1574-.03634l.32373.1761a.14446.14446,0,0,1,.06744.15564Z" transform="translate(-344.34379 -302.4188)"/>
        <path class="cls-1" d="M416.0457,319.52305a.10776.10776,0,0,0,.01835.15188l.7302.57273c.04668.03705.12517.09478.17433.12729l.3877.26777a.15672.15672,0,0,0,.17334-.00623l.47525-.38359a.1421.1421,0,0,1,.16881-.00142l.29674.23349a.10245.10245,0,0,1,.01594.1484l-.63159.7499c-.03875.04462-.0865.09818-.10725.11723-.02147.01934-.07715.00482-.12347-.03145L414.4602,318.989a.108.108,0,0,1-.018-.15187l.08614-.10959a.13557.13557,0,0,1,.16286-.03563l.40612.20819a.13692.13692,0,0,0,.16292-.03528l2.93242-3.74011a.13756.13756,0,0,0-.00446-.16669l-.29993-.3452a.13755.13755,0,0,1-.00446-.1671l.08642-.10859a.10875.10875,0,0,1,.15153-.0197l1.67688,1.315a.109.109,0,0,1,.01905.15152l-.08755.11a.1354.1354,0,0,1-.16222.03556l-.4064-.20855a.136.136,0,0,0-.16293.03563Z" transform="translate(-344.34379 -302.4188)"/>
        <path class="cls-1" d="M423.06421,326.18178a2.84,2.84,0,0,1-2.01726-1.08992,3.40551,3.40551,0,0,1-.64406-1.02453,2.32661,2.32661,0,0,1-.156-1.04735,2.51183,2.51183,0,0,1,.34173-1.04217,4.59012,4.59012,0,0,1,2.002-1.74843,2.611,2.611,0,0,1,1.11513-.20961,2.42007,2.42007,0,0,1,1.0477.29639,3.732,3.732,0,0,1,1.58281,1.7876,2.34532,2.34532,0,0,1,.1584,1.0584,2.55862,2.55862,0,0,1-.34272,1.05393,4.07639,4.07639,0,0,1-.85679,1.01554A3.19772,3.19772,0,0,1,423.06421,326.18178Zm2.63426-3.40321a1.48682,1.48682,0,0,0-.377-1.38872,1.52725,1.52725,0,0,0-1.32687-.56939,3.29891,3.29891,0,0,0-1.75884.94151,3.45855,3.45855,0,0,0-1.184,1.64373,1.48649,1.48649,0,0,0,.37983,1.39325,1.52544,1.52544,0,0,0,1.3268.569,3.294,3.294,0,0,0,1.75885-.94151A3.4294,3.4294,0,0,0,425.69847,322.77857Z" transform="translate(-344.34379 -302.4188)"/>
        <path class="cls-1" d="M428.12837,329.91085a.13327.13327,0,0,0,.027-.16293l-.64407-1.0941-2.11792,1.27672.69252,1.166c.03011.0505.08267.13211.11553.1812l.26565.38954a.152.152,0,0,0,.16321.05632l.57868-.192a.14252.14252,0,0,1,.1574.05985l.19714.33138a.10353.10353,0,0,1-.04009.14423l-.85991.47178c-.05185.02806-.11617.05986-.14281.0702-.02663.01006-.073-.0238-.10307-.0743l-2.22616-3.74777a.10759.10759,0,0,1,.03839-.14735l.12-.07225a.13457.13457,0,0,1,.16463.02557l.30333.34208a.13663.13663,0,0,0,.16435.02529l4.08666-2.42713a.13717.13717,0,0,0,.056-.1567l-.15528-.42956a.1377.1377,0,0,1,.05639-.15669l.12071-.07162a.108.108,0,0,1,.14769.037l2.12274,3.57308a.32365.32365,0,0,1,.04945.15117.20985.20985,0,0,1-.09648.11447l-.85367.54751a.10229.10229,0,0,1-.14565-.03492l-.19332-.32409a.14032.14032,0,0,1,.02352-.16569l.46243-.43686a.15317.15317,0,0,0,.02976-.17015l-.22-.42751c-.02692-.05263-.07431-.13736-.10477-.18822l-.624-1.05733-1.87261,1.1179.64541,1.0885a.13292.13292,0,0,0,.15563.055l.42722-.16116a.135.135,0,0,1,.156.05674l.16222.27224a.10961.10961,0,0,1-.03733.14868l-1.38149.8201a.10874.10874,0,0,1-.14841-.03733l-.16186-.27294a.133.133,0,0,1,.027-.16286Z" transform="translate(-344.34379 -302.4188)"/>
        <path class="cls-1" d="M358.09675,327.37859a.13374.13374,0,0,0-.15847.048l-.69761,1.06016,2.08052,1.33757.74019-1.13624c.03216-.04945.08231-.13318.11206-.18475l.23242-.40916a.15031.15031,0,0,0-.02245-.17087l-.42616-.43579a.13937.13937,0,0,1-.01729-.1664l.211-.32408a.10511.10511,0,0,1,.14734-.02841l.8021.56486c.04846.03394.10477.0775.12624.09684.02075.01906.01105.07608-.02147.12595l-2.37967,3.65185a.10889.10889,0,0,1-.14911.03046l-.118-.07643a.13611.13611,0,0,1-.04944-.15839l.17291-.42411a.13649.13649,0,0,0-.05015-.15875l-3.98153-2.59523a.13827.13827,0,0,0-.165.0187l-.31714.3289a.13725.13725,0,0,1-.1664.018l-.11759-.07643a.10958.10958,0,0,1-.03117-.14975l2.26945-3.48036a.32488.32488,0,0,1,.11305-.111.21555.21555,0,0,1,.146.03563l.86848.52434a.10411.10411,0,0,1,.03322.14636l-.20578.3158a.1427.1427,0,0,1-.16017.05256l-.596-.22173a.15131.15131,0,0,0-.16534.04909l-.286.38466c-.03563.0481-.091.12729-.12347.17709l-.67382,1.02659,1.83082,1.18746.69209-1.06016a.13334.13334,0,0,0-.01969-.16329l-.33273-.313a.13477.13477,0,0,1-.01969-.16392l.17362-.26636a.1079.1079,0,0,1,.1494-.03144l1.34656.87683a.10838.10838,0,0,1,.03181.1494l-.174.26734a.13236.13236,0,0,1-.158.0464Z" transform="translate(-344.34379 -302.4188)"/>
        <path class="cls-1" d="M433.82617,334.58135a.23577.23577,0,0,1-.02869.18921l-3.03414,4.20192,3.53015-1.22969a.13677.13677,0,0,0,.0865-.14252l-.065-.45238a.13544.13544,0,0,1,.0865-.14181l.13282-.04534a.10634.10634,0,0,1,.13693.06673l.59943,1.73228a.11016.11016,0,0,1-.06637.1387l-.13254.04427a.13682.13682,0,0,1-.15634-.05745l-.23065-.4047a.13708.13708,0,0,0-.15606-.05773l-4.99671,1.72874a.10863.10863,0,0,1-.13729-.06638l-.17015-.49324a.2326.2326,0,0,1,.02833-.18992l3.52081-4.811-4.10742,1.42193a.13836.13836,0,0,0-.08649.14253l.06538.45245a.1355.1355,0,0,1-.08685.1421l-.13246.045a.10662.10662,0,0,1-.13729-.06538l-.59943-1.73427a.10864.10864,0,0,1,.06637-.13764l.13283-.04427a.13266.13266,0,0,1,.155.05738l.23207.40364a.13649.13649,0,0,0,.156.0585l4.49143-1.55411a.13524.13524,0,0,0,.08678-.14147l-.06744-.45967a.13622.13622,0,0,1,.08614-.14252l.13282-.047a.10861.10861,0,0,1,.13665.06744Z" transform="translate(-344.34379 -302.4188)"/>
        <path class="cls-1" d="M430.707,343.67139a2.54539,2.54539,0,0,0-.05979.44408,2.19751,2.19751,0,0,0,.01176.40952,1.52,1.52,0,0,0,.38975.89242.87567.87567,0,0,0,.78312.23107.90031.90031,0,0,0,.46867-.19785,1.334,1.334,0,0,0,.30581-.37218,2.58588,2.58588,0,0,0,.20507-.47873c.055-.17291.11313-.34448.17434-.51329q.14217-.37977.26118-.68763a2.539,2.539,0,0,1,.27428-.5327,1.31421,1.31421,0,0,1,.38118-.36248,1.49186,1.49186,0,0,1,.56791-.18815,1.37381,1.37381,0,0,1,.69.06362,1.41562,1.41562,0,0,1,.5514.37771,2.15837,2.15837,0,0,1,.39776.65305,3.752,3.752,0,0,1,.23072.88825,3.32156,3.32156,0,0,1,.03216.39988c.00383.14522.00383.2905-.00142.43721-.00446.14664-.01452.28916-.02833.42751-.01452.13969-.0384.26288-.0384.26288a.19926.19926,0,0,1-.0522.11894.56044.56044,0,0,1-.14048.01523l-.9114.02075a.12532.12532,0,0,1-.12347-.10512l-.05221-.3639a.1466.1466,0,0,1,.08508-.14805l.66892-.267a1.00317,1.00317,0,0,0,.09273-.33761,1.90018,1.90018,0,0,0-.01558-.4953,1.29065,1.29065,0,0,0-.3559-.77894.8029.8029,0,0,0-.7025-.20614.9.9,0,0,0-.43034.16463,1.00677,1.00677,0,0,0-.26352.31126,2.09944,2.09944,0,0,0-.1681.40959c-.04427.148-.09237.30155-.14359.45655-.07849.21166-.15669.43445-.23384.66687a3.33189,3.33189,0,0,1-.29291.64612,1.91088,1.91088,0,0,1-.42893.50224,1.1614,1.1614,0,0,1-.64129.2463,1.75139,1.75139,0,0,1-.8495-.09966,1.52234,1.52234,0,0,1-.589-.433,2.11577,2.11577,0,0,1-.376-.70839,5.42192,5.42192,0,0,1-.21-.9228,4.98972,4.98972,0,0,1-.04838-.90071c.01105-.29887.05185-.671.05185-.671.00623-.0595.02628-.11341.04463-.11759a.98255.98255,0,0,1,.14075-.01247l.91006-.02628a.12235.12235,0,0,1,.12312.10236l.05256.36531a.14579.14579,0,0,1-.084.148Z" transform="translate(-344.34379 -302.4188)"/>
        <path class="cls-1" d="M436.41276,351.678a.13515.13515,0,0,1-.12864-.10519l-.08926-.44961a.1379.1379,0,0,0-.128-.1052l-4.75283.02076a.13656.13656,0,0,0-.12871.10654l-.084.44968a.13583.13583,0,0,1-.128.10654l-.13976.00135a.10894.10894,0,0,1-.109-.10789l-.00935-2.139a.10924.10924,0,0,1,.1076-.1093h.14012a.1366.1366,0,0,1,.129.10512l.08854.44968a.13459.13459,0,0,0,.12865.10378l4.75289-.01941a.13535.13535,0,0,0,.12765-.10654l.08366-.44961a.136.136,0,0,1,.12871-.10654l.1397-.00142a.10849.10849,0,0,1,.10866.108l.01,2.139a.108.108,0,0,1-.10789.10789Z" transform="translate(-344.34379 -302.4188)"/>
        <path class="cls-1" d="M430.974,355.29743a2.51114,2.51114,0,0,0-.18815.4081,2.15792,2.15792,0,0,0-.109.39436,1.51741,1.51741,0,0,0,.11.9685.87679.87679,0,0,0,.68.44961.89628.89628,0,0,0,.506-.0498,1.3481,1.3481,0,0,0,.40194-.26564,2.59269,2.59269,0,0,0,.33691-.397c.10306-.15082.2089-.29611.31749-.44q.248-.31962.45174-.58108a2.46533,2.46533,0,0,1,.41922-.42617,1.2608,1.2608,0,0,1,.47043-.23518,1.446,1.446,0,0,1,.598-.01388,1.36895,1.36895,0,0,1,.64094.26288,1.42456,1.42456,0,0,1,.41611.52441,2.17014,2.17014,0,0,1,.18822.74154,3.7712,3.7712,0,0,1-.04123.91459,3.45218,3.45218,0,0,1-.08678.39429c-.03875.14111-.08231.27945-.1297.41645-.04739.13977-.099.27117-.15323.40123-.05433.12864-.11348.238-.11348.238-.02734.05256-.066.09683-.08508.09967a.69475.69475,0,0,1-.139-.02636l-.87684-.249a.1257.1257,0,0,1-.08713-.13559l.05738-.36524a.14709.14709,0,0,1,.12489-.1149l.71773-.05808a1.025,1.025,0,0,0,.1878-.29611,1.91921,1.91921,0,0,0,.13076-.47731,1.28337,1.28337,0,0,0-.11136-.84949.79913.79913,0,0,0-.61084-.404.887.887,0,0,0-.45938.03046.991.991,0,0,0-.34343.21995,2.12372,2.12372,0,0,0-.28087.34173c-.08578.12871-.17709.26153-.27294.3957-.13594.17851-.27634.368-.41922.56862a3.27741,3.27741,0,0,1-.46937.53129,1.91832,1.91832,0,0,1-.55792.35284,1.16471,1.16471,0,0,1-.68487.047,1.796,1.796,0,0,1-.78276-.34449,1.53754,1.53754,0,0,1-.43615-.588,2.13374,2.13374,0,0,1-.15117-.78723,5.5264,5.5264,0,0,1,.07126-.945,4.991,4.991,0,0,1,.219-.87442c.09825-.28088.24694-.62678.24694-.62678.02324-.05532.05781-.09818.07715-.09818a.9223.9223,0,0,1,.13834.029l.8779.24212a.12378.12378,0,0,1,.08713.13559l-.057.3639a.1451.1451,0,0,1-.12418.11617Z" transform="translate(-344.34379 -302.4188)"/>
      </g>
      <g>
        <path class="cls-1" d="M366.83458,385.90452a.13235.13235,0,0,0,.15811-.04428l2.44682-3.51563-4.55575,2.58036a.17237.17237,0,0,1-.17808-.01523l-.182-.14806a.1838.1838,0,0,1-.05638-.17291l1.31822-4.91993-2.76609,3.01339a.13.13,0,0,0-.01353.16321l.2774.37636a.13677.13677,0,0,1-.00963.16739l-.09443.101a.10659.10659,0,0,1-.15258.00411l-1.34862-1.25625a.108.108,0,0,1-.00588-.15216l.09584-.10243a.13862.13862,0,0,1,.165-.0221l.38876.24623a.14408.14408,0,0,0,.16739-.01934l3.12857-3.47136a.1292.1292,0,0,0,.00177-.16328l-.2961-.35143a.13846.13846,0,0,1-.0017-.16739l.08819-.10788a.109.109,0,0,1,.15216-.01523l1.41053,1.14559a.1847.1847,0,0,1,.05639.17292l-1.12137,4.33055,3.86047-2.103a.1725.1725,0,0,1,.17816.01664l1.35173,1.09856a.10759.10759,0,0,1,.01594.15082l-.08854.1093a.13682.13682,0,0,1-.16258.03315l-.40505-.2186a.12905.12905,0,0,0-.15981.03464l-2.66784,3.79232a.14341.14341,0,0,0,.01317.16881l.31368.3362a.136.136,0,0,1,.00935.166l-.08232.11207a.10784.10784,0,0,1-.15046.02359l-1.73461-1.27155a.10676.10676,0,0,1-.02289-.1494l.08232-.11348a.13655.13655,0,0,1,.16123-.04151Z" transform="translate(-344.34379 -302.4188)"/>
        <path class="cls-1" d="M377.03975,385.60154a5.52186,5.52186,0,0,1,1.0975.7222,2.72271,2.72271,0,0,1,.70632.89794,2.26984,2.26984,0,0,1,.2099,1.10409,3.341,3.341,0,0,1-.40258,1.33785,3.54523,3.54523,0,0,1-.82044,1.09027,2.4585,2.4585,0,0,1-1.02213.54234,2.85414,2.85414,0,0,1-1.175.02628,7.56064,7.56064,0,0,1-1.18258-.404c-.05468-.02352-.14182-.06361-.19579-.09131l-2.057-1.05287a.1085.1085,0,0,1-.047-.14529l.06333-.12312a.1348.1348,0,0,1,.15251-.06644l.44168.12871a.13428.13428,0,0,0,.15287-.065l2.158-4.22125a.13759.13759,0,0,0-.03627-.16328l-.36255-.28222a.13514.13514,0,0,1-.03626-.16187l.06361-.12453a.108.108,0,0,1,.14493-.047Zm.966,2.50144a1.99456,1.99456,0,0,0-.02246-.88965,1.63964,1.63964,0,0,0-.41922-.7125,4.82207,4.82207,0,0,0-.71532-.51471c-.05115-.0318-.13559-.07743-.18886-.10377l-.53922-.27946-2.29083,4.48137.514.26564a5.34151,5.34151,0,0,0,.71809.30574,1.64542,1.64542,0,0,0,1.66476-.29327,3.22782,3.22782,0,0,0,.89689-1.15806A4.37744,4.37744,0,0,0,378.00577,388.103Z" transform="translate(-344.34379 -302.4188)"/>
        <path class="cls-1" d="M387.17607,389.77434c-.01318-.19927-.00695-.23384-.01318-.375-.00829-.173-.06361-.238-.23731-.35008a1.68642,1.68642,0,0,0-.22477-.11341,1.83384,1.83384,0,0,0-.43445-.13148,2.04526,2.04526,0,0,0-.83157.00836,1.61507,1.61507,0,0,0-.69967.35,2.21216,2.21216,0,0,0-.53341.69734,3.82707,3.82707,0,0,0-.332,1.04458,2.95108,2.95108,0,0,0,.184,2.01032,1.96152,1.96152,0,0,0,1.44829.90758,2.99577,2.99577,0,0,0,.65369.04292c.20132-.00829.4324-.036.69592-.06921.13771-.01657.15081.083.15081.083l.01452.10788a.16026.16026,0,0,1-.09025.1647,3.60384,3.60384,0,0,1-1.9183.1494,3.7731,3.7731,0,0,1-1.06774-.35695,2.33812,2.33812,0,0,1-.79523-.66964,2.43307,2.43307,0,0,1-.42992-1.01554,3.80159,3.80159,0,0,1,.02905-1.396,3.72351,3.72351,0,0,1,.49048-1.34621,2.66573,2.66573,0,0,1,.83185-.84121,2.70615,2.70615,0,0,1,1.09438-.38189,4.1798,4.1798,0,0,1,1.28466.04428,4.22631,4.22631,0,0,1,.84672.24354q.2682.1121.50636.22831a.25231.25231,0,0,1,.16158.29469l-.2349.77893s-.05639.17016-.20713.14529c-.13389-.02352-.2145-.03875-.2145-.03875S387.18917,389.97354,387.17607,389.77434Z" transform="translate(-344.34379 -302.4188)"/>
        <path class="cls-1" d="M396.20858,389.9763c-.05979-.18949-.06156-.22548-.10094-.36106-.04952-.16463-.11866-.21585-.3141-.28229a1.59254,1.59254,0,0,0-.24524-.05944,1.84516,1.84516,0,0,0-.45308-.02358,2.02675,2.02675,0,0,0-.80628.20479,1.6611,1.6611,0,0,0-.59668.505,2.19025,2.19025,0,0,0-.35249.80522,3.79058,3.79058,0,0,0-.07572,1.093,2.95273,2.95273,0,0,0,.65476,1.91072,1.97046,1.97046,0,0,0,1.62191.53816,2.99507,2.99507,0,0,0,.645-.11483c.19339-.054.41129-.13694.65993-.23242.12907-.04846.16675.047.16675.047l.03911.101a.16114.16114,0,0,1-.04846.1812,3.59346,3.59346,0,0,1-1.829.59908,3.72472,3.72472,0,0,1-1.12208-.09407,2.33816,2.33816,0,0,1-.93081-.46208,2.45734,2.45734,0,0,1-.65717-.88272,3.821,3.821,0,0,1-.30333-1.36561,3.7153,3.7153,0,0,1,.15875-1.42364,2.63967,2.63967,0,0,1,.60878-1.01419,2.71164,2.71164,0,0,1,.973-.62947,4.13362,4.13362,0,0,1,1.25837-.26154,4.07573,4.07573,0,0,1,.88023.036c.19169.03046.374.06368.54588.101a.25366.25366,0,0,1,.22725.24906l-.04463.81209s-.01353.17986-.166.18957c-.13629.0097-.21755.011-.21755.011S396.26915,390.16586,396.20858,389.9763Z" transform="translate(-344.34379 -302.4188)"/>
        <path class="cls-1" d="M405.01845,388.1168c-.099-.17434-.108-.20749-.17469-.33068-.08337-.15357-.16186-.18673-.36559-.21166a1.52448,1.52448,0,0,0-.25289-.00694,1.87682,1.87682,0,0,0-.44827.072,2.04433,2.04433,0,0,0-.74472.36942,1.63571,1.63571,0,0,0-.47731.61842,2.19426,2.19426,0,0,0-.176.86061,3.80234,3.80234,0,0,0,.15527,1.08609,2.95061,2.95061,0,0,0,1.04048,1.72945,1.96927,1.96927,0,0,0,1.69934.1868,3.06392,3.06392,0,0,0,.60665-.24631c.17745-.09549.37361-.22136.59632-.36524.11625-.07608.173.00971.173.00971l.05915.09131a.15979.15979,0,0,1-.00935.18673,3.61321,3.61321,0,0,1-.63124.51471,3.52981,3.52981,0,0,1-1.03077.4552,3.72536,3.72536,0,0,1-1.11691.14111,2.30819,2.30819,0,0,1-1.00753-.25459,2.46174,2.46174,0,0,1-.8281-.72637,3.78777,3.78777,0,0,1-.58179-1.27006,3.71246,3.71246,0,0,1-.14458-1.42647,2.64011,2.64011,0,0,1,.38259-1.1179,2.711,2.711,0,0,1,.81868-.82187,4.22969,4.22969,0,0,1,1.17641-.51882,4.1031,4.1031,0,0,1,.86749-.148c.194-.01105.37941-.01657.55551-.01523a.25207.25207,0,0,1,.27429.19374l.12694.80381s.02352.17851-.12312.22137c-.13077.0374-.20961.05674-.20961.05674S405.11734,388.28978,405.01845,388.1168Z" transform="translate(-344.34379 -302.4188)"/>
        <path class="cls-1" d="M412.35028,386.67928l-2.61634-1.1857a.33426.33426,0,0,0-.20132-.01381l-.39294.12177a.14119.14119,0,0,1-.15705-.06092l-.06843-.12177a.10914.10914,0,0,1,.0401-.148l1.883-1.07093a.10928.10928,0,0,1,.1477.03875l.0685.12318a.14187.14187,0,0,1-.02593.166l-.23384.2145a.06747.06747,0,0,0,.018.11893l1.86432.8869.22965-2.08088a.06566.06566,0,0,0-.09095-.07608l-.32579.10236a.13845.13845,0,0,1-.15669-.06085l-.0685-.12042a.10838.10838,0,0,1,.03974-.148l1.49114-.84956a.10864.10864,0,0,1,.147.04016l.06886.12177a.14051.14051,0,0,1-.027.166l-.34038.29886a.31335.31335,0,0,0-.09266.17851l-.28916,2.64673,2.89856,1.349a.32416.32416,0,0,0,.20132.01246l.40052-.12453a.13974.13974,0,0,1,.156.06085l.06885.12177a.107.107,0,0,1-.04052.14664l-1.88954,1.0778a.109.109,0,0,1-.14706-.04151l-.06913-.12035a.1389.1389,0,0,1,.027-.166l.25389-.22831a.06715.06715,0,0,0-.017-.11894l-2.177-1.04323-.26458,2.43506a.06574.06574,0,0,0,.0906.07608l.311-.09407a.14116.14116,0,0,1,.157.06092l.0692.1217a.10842.10842,0,0,1-.04044.14671l-1.49844.85367a.10867.10867,0,0,1-.147-.04017l-.06886-.12035a.14039.14039,0,0,1,.027-.166l.34073-.30021a.32343.32343,0,0,0,.09372-.17709Z" transform="translate(-344.34379 -302.4188)"/>
        <path class="cls-1" d="M418.834,378.72386a.13707.13707,0,0,1,.00553.166l-.28222.3639a.13854.13854,0,0,0,.00588.16739l3.13544,3.55438a.13659.13659,0,0,0,.1647.02628l.39535-.23377a.13362.13362,0,0,1,.16392.02628l.09273.10378a.10877.10877,0,0,1-.00936.15216l-1.6122,1.42229a.10831.10831,0,0,1-.15287-.0097l-.092-.10371a.13556.13556,0,0,1-.00517-.166l.28186-.3639a.13807.13807,0,0,0-.00552-.16739l-3.13552-3.55438a.136.136,0,0,0-.16427-.02628l-.3957.23383a.13651.13651,0,0,1-.16463-.02628l-.09273-.10377a.10873.10873,0,0,1,.00971-.15224l1.61256-1.42229a.10794.10794,0,0,1,.15251.00971Z" transform="translate(-344.34379 -302.4188)"/>
      </g>
      <path class="cls-1" d="M365.36667,323.01793a.22252.22252,0,0,0,.18021-.05915l.89653-.94116a.10875.10875,0,0,0-.00418-.15287l-.101-.09655a.13849.13849,0,0,0-.167-.01346l-.34137.23724a.3061.3061,0,0,1-.19509.04463l-2.67584-.43509a.07764.07764,0,0,1-.06121-.11518,3.4257,3.4257,0,0,0,.31474-1.07363,1.43576,1.43576,0,0,0-.4929-1.00137,1.296,1.296,0,0,0-.68068-.3736,1.33284,1.33284,0,0,0-.66964.07126,2.23,2.23,0,0,0-.62954.3656c-.202.16257-.488.44451-.488.44451-.04187.04151-.11072.11065-.15152.15358l-1.57417,1.65365a.1087.1087,0,0,0,.00382.15258l.10137.09683a.13687.13687,0,0,0,.16633.01212l.37807-.27152a.13631.13631,0,0,1,.16569.01105l3.44295,3.277a.13753.13753,0,0,1,.02012.165l-.25254.39088a.13579.13579,0,0,0,.01941.16562l.10165.09726a.1091.1091,0,0,0,.15259-.00417l1.47485-1.54995a.10868.10868,0,0,0-.00347-.15252l-.102-.09753a.13668.13668,0,0,0-.166-.01077l-.37148.26536a.136.136,0,0,1-.1664-.01176l-1.58628-1.50949.2349-.2473a.22267.22267,0,0,1,.18092-.0578Zm-3.65816-.60149a.956.956,0,0,1-.07162.0702l-1.71145-1.6188.30645-.31749c.04115-.04392.1093-.11277.15187-.15393a3.96923,3.96923,0,0,1,.31821-.27981,1.055,1.055,0,0,1,.40264-.18957.81215.81215,0,0,1,.42369.02869,1.25933,1.25933,0,0,1,.451.29505,1.24618,1.24618,0,0,1,.4822.94462,2.3625,2.3625,0,0,1-.40746.83809,1.93022,1.93022,0,0,1-.138.16505Z" transform="translate(-344.34379 -302.4188)"/>
    </g>
    <g>
      <path class="cls-1" d="M462.87267,326.13912V325.632h9.44086v.50715c-2.73329.33817-2.79.67634-2.79,3.63549v8.14423c0,4.42435,1.49354,6.90427,5.32614,6.90427,4.14264,0,5.552-2.90268,5.63618-7.12972v-7.94711c0-2.90249-.05626-3.269-2.78955-3.60716V325.632h6.90427v.50715c-2.7337.33817-2.79037.70467-2.79037,3.60716v7.89065c0,6.11541-2.84622,8.79244-7.89025,8.79244-5.60825,0-8.25695-2.90248-8.25695-8.1161v-8.53866C465.663,326.87192,465.60637,326.47729,462.87267,326.13912Z" transform="translate(-344.34379 -302.4188)"/>
      <path class="cls-1" d="M500.32768,326.13912V325.632H507.232v.50715c-2.7337.33817-2.79.70467-2.79,3.60716v16.31679h-2.3674l-12.005-15.52773v11.41342c0,2.90248.05666,3.26878,2.79,3.60716v.50715h-6.90428v-.50715c2.7337-.33838,2.79-.70468,2.79-3.60716v-13.1324l-.47923-.61988c-.986-1.29642-1.52187-1.83191-2.31074-2.142V325.632h5.242l11.92037,15.33041v-11.2161C503.11764,326.84379,503.06138,326.47729,500.32768,326.13912Z" transform="translate(-344.34379 -302.4188)"/>
      <path class="cls-1" d="M515.60385,341.94876c0,2.90248.05627,3.26878,2.79,3.60716v.50715H508.953v-.50715c2.7337-.33838,2.79036-.70468,2.79036-3.60716V329.74628c0-2.90249-.05666-3.269-2.79036-3.60716V325.632h9.44085v.50715c-2.73369.33817-2.79.70467-2.79,3.60716Z" transform="translate(-344.34379 -302.4188)"/>
      <path class="cls-1" d="M522.73479,328.901c-.78927-2.05716-1.12764-2.53638-2.87456-2.76183V325.632h8.70785v.50715c-1.77524.22545-2.31113.7328-1.80357,2.14175l4.95983,13.555,3.438-9.9478c1.83191-5.298,1.04265-5.52346-1.12723-5.74891V325.632h6.50964v.50715c-1.88777.22545-2.16948.59175-3.63509,4.79086l-5.32614,15.13309h-2.2828Z" transform="translate(-344.34379 -302.4188)"/>
      <path class="cls-1" d="M552.46711,346.06307H542.01235v-.50715c2.73329-.33838,2.78955-.70468,2.78955-3.60716V329.74628c0-2.90249-.05626-3.269-2.78955-3.60716V325.632h10.173c1.94443,0,4.45269,0,6.6509-.0846l.67594,6.73529h-.56342c-1.40894-4.76252-3.32545-5.63618-8.79244-5.63618h-1.49354v8.257H551.96c1.60646,0,2.62077-.78906,2.90248-3.15626H555.37v7.55248h-.50756c-.28171-2.36719-1.296-3.15626-2.90248-3.15626h-3.29712v7.72147c0,.98638.19711,1.21183,1.43728,1.21183h1.071c5.129,0,6.93261-1.15537,8.45407-5.72078h.53549l-1.12724,6.73529C556.77894,346.06307,554.46821,346.06307,552.46711,346.06307Z" transform="translate(-344.34379 -302.4188)"/>
      <path class="cls-1" d="M562.78345,345.55592c2.73329-.33838,2.78955-.70468,2.78955-3.60716V329.74628c0-2.90249-.05626-3.269-2.78955-3.60716V325.632h3.60715c1.38061,0,4.22684-.02834,5.1007-.02834,5.21321,0,9.24293,1.40915,9.24293,5.38261,0,2.73349-2.057,4.34-5.10069,5.07256l4.36809,6.76342c1.29642,2.00089,1.71939,2.50825,3.69175,2.7337v.50715h-6.31253c-.53548-1.04264-1.40894-2.59264-2.33906-4.11431L573.83,340.06059c-1.1835-1.86-1.80358-2.81809-2.367-3.579h-2.029v5.4672c0,2.90248.05626,3.26878,3.07167,3.60716v.50715h-9.72216Zm8.53866-18.93757h-1.88817v8.8487h1.88817c3.24086,0,5.129-1.12724,5.129-4.42435S574.563,326.61835,571.32211,326.61835Z" transform="translate(-344.34379 -302.4188)"/>
      <path class="cls-1" d="M585.89361,344.90771v-6.87615h.56382c.78887,5.24155,2.87415,7.35517,6.22753,7.35517,2.48032,0,4.53728-1.21183,4.53728-3.748,0-1.9163-1.52187-2.90268-3.77635-3.97346l-2.50785-1.1837c-2.98707-1.40914-4.87565-3.269-4.87565-6.00248,0-3.24085,3.07208-5.49533,7.0172-5.49533a13.43647,13.43647,0,0,1,6.05874,1.40915v5.777h-.56341c-.78927-4.02992-2.7337-6.14354-5.52326-6.14354-2.2828,0-3.88886,1.071-3.88886,3.04353,0,1.94444,1.32435,2.84623,2.81789,3.5509l2.98707,1.40894c3.12793,1.46541,5.4674,3.01541,5.4674,6.08708,0,3.69175-3.523,6.31252-7.7502,6.31252A14.76093,14.76093,0,0,1,585.89361,344.90771Z" transform="translate(-344.34379 -302.4188)"/>
      <path class="cls-1" d="M609.76431,341.94876c0,2.90248.05626,3.26878,2.79,3.60716v.50715h-9.44045v-.50715c2.73329-.33838,2.78955-.70468,2.78955-3.60716V329.74628c0-2.90249-.05626-3.269-2.78955-3.60716V325.632h9.44045v.50715c-2.7337.33817-2.79.70467-2.79,3.60716Z" transform="translate(-344.34379 -302.4188)"/>
      <path class="cls-1" d="M619.88231,345.55592c2.98748-.33838,3.1-.78927,3.1-3.60716V326.56188h-.70427c-3.94553,0-5.60826,2.0009-7.0172,6.50984H614.697l.84553-7.52435c2.16988.0846,4.79065.0846,6.73549.0846h5.24154c1.94444,0,4.56521,0,6.76342-.0846l.84512,7.52435h-.59174c-1.381-4.50894-3.04334-6.50984-6.98887-6.50984h-.70467v15.38688c0,2.81789.11292,3.26878,3.1004,3.60716v.50715H619.88231Z" transform="translate(-344.34379 -302.4188)"/>
      <path class="cls-1" d="M651.16525,345.55592v.50715H641.10471v-.50715c2.98708-.33838,3.0996-.78927,3.0996-3.60716v-3.9172l-5.157-9.27167c-1.0989-2.029-1.49353-2.39532-2.79-2.62077V325.632h8.70785v.50715c-1.77524.22545-2.42366.70467-1.74691,2.029l4.33976,8.17256,3.4663-6.14354c1.83151-3.18439,1.35269-3.86073-.67674-4.05805V325.632h6.28459v.50715c-1.52187.25378-2.19821.7328-3.86094,3.52256l-4.70606,8.17257v4.11451C648.06524,344.76665,648.17817,345.21754,651.16525,345.55592Z" transform="translate(-344.34379 -302.4188)"/>
      <path class="cls-1" d="M474.54007,354.49528c5.52326,0,10.73647,3.72009,10.73647,10.68062s-5.21321,10.68061-10.73647,10.68061c-5.52366,0-10.73727-3.72008-10.73727-10.68061S469.01641,354.49528,474.54007,354.49528Zm0,1.04265c-3.88926,0-6.42544,3.69175-6.42544,9.638s2.53618,9.638,6.42544,9.638c3.88887,0,6.425-3.69175,6.425-9.638S478.42894,355.53793,474.54007,355.53793Z" transform="translate(-344.34379 -302.4188)"/>
      <path class="cls-1" d="M487.98434,374.98306c2.7337-.33838,2.79037-.70468,2.79037-3.60716V359.17342c0-2.90249-.05667-3.26919-2.79037-3.60716v-.50715h10.73728c1.94443,0,4.45228,0,6.65049-.0846l.67634,6.73509H505.485c-1.40935-4.76232-3.32545-5.63618-8.79285-5.63618h-2.05695v8.257h3.29711c1.60647,0,2.62078-.78886,2.90289-3.15626h.50715v7.55268h-.50715c-.28211-2.36739-1.29642-3.15626-2.90289-3.15626h-3.29711v5.8333c0,2.81829.11252,3.24085,3.1,3.57923v.50715h-9.7509Z" transform="translate(-344.34379 -302.4188)"/>
      <path class="cls-1" d="M526.22861,354.49528c5.52326,0,10.73647,3.72009,10.73647,10.68062s-5.21321,10.68061-10.73647,10.68061c-5.52366,0-10.73728-3.72008-10.73728-10.68061S520.705,354.49528,526.22861,354.49528Zm0,1.04265c-3.88927,0-6.42545,3.69175-6.42545,9.638s2.53618,9.638,6.42545,9.638c3.88887,0,6.425-3.69175,6.425-9.638S530.11748,355.53793,526.22861,355.53793Z" transform="translate(-344.34379 -302.4188)"/>
      <path class="cls-1" d="M540.71552,374.33464V367.4587h.56382c.78886,5.24155,2.87415,7.35517,6.22793,7.35517,2.47992,0,4.53728-1.21183,4.53728-3.748,0-1.9165-1.52187-2.90289-3.77634-3.97346L545.76,365.9085c-2.98707-1.40894-4.87524-3.26878-4.87524-6.00248,0-3.24086,3.07167-5.49533,7.0172-5.49533a13.43783,13.43783,0,0,1,6.05874,1.40935v5.777h-.56342c-.78927-4.03013-2.7337-6.14375-5.52366-6.14375-2.2824,0-3.88886,1.071-3.88886,3.04374,0,1.94444,1.32435,2.84623,2.81829,3.5509l2.98708,1.40894c3.12793,1.46521,5.467,3.01541,5.467,6.08708,0,3.69175-3.52256,6.31252-7.7498,6.31252A14.75992,14.75992,0,0,1,540.71552,374.33464Z" transform="translate(-344.34379 -302.4188)"/>
      <path class="cls-1" d="M557.93572,374.98306c2.7333-.33838,2.79-.70468,2.79-3.60716V359.17342c0-2.90249-.05666-3.26919-2.79-3.60716v-.50715h9.44086v.50715c-2.7337.338-2.79036.70467-2.79036,3.60716v14.17484c0,.93012.28211,1.15557,1.15556,1.15557h.87387c5.10069,0,6.45337-1.24016,7.97524-6.05874h.56342l-.90179,7.07305c-1.35268-.02793-4.6498-.02793-5.777-.02793H557.93572Z" transform="translate(-344.34379 -302.4188)"/>
      <path class="cls-1" d="M587.97809,354.49528c5.52366,0,10.73687,3.72009,10.73687,10.68062s-5.21321,10.68061-10.73687,10.68061-10.73688-3.72008-10.73688-10.68061S582.45443,354.49528,587.97809,354.49528Zm0,1.04265c-3.88927,0-6.42545,3.69175-6.42545,9.638s2.53618,9.638,6.42545,9.638c3.88886,0,6.42545-3.69175,6.42545-9.638S591.867,355.53793,587.97809,355.53793Z" transform="translate(-344.34379 -302.4188)"/>
    </g>
  </g>
</svg>
